<?xml version="1.0" encoding="UTF-8" standalone="no"?>
<svg
   width="172.242"
   height="56.000999"
   viewBox="0 0 172.242 56.001"
   version="1.1"
   id="svg5"
   sodipodi:docname="mellat-full-dark.svg"
   inkscape:version="1.3.2 (091e20e, 2023-11-25, custom)"
   xmlns:inkscape="http://www.inkscape.org/namespaces/inkscape"
   xmlns:sodipodi="http://sodipodi.sourceforge.net/DTD/sodipodi-0.dtd"
   xmlns="http://www.w3.org/2000/svg"
   xmlns:svg="http://www.w3.org/2000/svg">
  <defs
     id="defs5" />
  <sodipodi:namedview
     id="namedview5"
     pagecolor="#ffffff"
     bordercolor="#000000"
     borderopacity="0.25"
     inkscape:showpageshadow="2"
     inkscape:pageopacity="0.0"
     inkscape:pagecheckerboard="0"
     inkscape:deskcolor="#d1d1d1"
     inkscape:zoom="3.262851"
     inkscape:cx="112.47832"
     inkscape:cy="-12.718938"
     inkscape:window-width="1920"
     inkscape:window-height="1017"
     inkscape:window-x="-8"
     inkscape:window-y="-8"
     inkscape:window-maximized="1"
     inkscape:current-layer="svg5" />
  <g
     id="g6"
     transform="matrix(0.36523063,0,0,0.36523063,62.033617,58.660241)">
    <path
       style="fill:#d4d4d8;fill-opacity:1;stroke:none;stroke-width:0.727204;stroke-opacity:1"
       d="m 132.50933,-81.684922 c 8.71446,-33.494208 57.51017,-91.992558 47.1038,-27.093958 16.41268,-35.3294 12.56504,-51.25187 0,-51.82666 -12.56496,-0.57475 -51.37394,40.4838 -47.1038,78.920618 z"
       id="path1-1"
       sodipodi:nodetypes="cczc" />
    <path
       style="fill:#d4d4d8;fill-opacity:1;stroke:none;stroke-width:0.727204;stroke-opacity:1"
       d="m 208.63949,-96.698642 c 9.55793,-11.428458 22.19395,-30.655828 16.8734,-37.613668 -5.32059,-6.95785 -39.12737,16.86969 -52.8449,40.717152 -8.34792,16.86652 -29.29342,48.888566 -39.77685,35.925128 l -3.32681,5.065998 c -0.18785,9.91114 -6.53364,20.28552 -21.28645,18.30184 l -0.53322,3.07181 c 1.62236,2.01199 1.7311,5.85887 -2.98182,7.78167 l 0.0752,2.61173 10.3386,0.11263 c -3.81615,-9.10492 8.08977,-13.59198 14.03644,-11.12115 l 3.40823,-2.36874 c -0.4837,-9.37293 10.99185,-19.92749 23.25566,-16.48169 l 3.8095,-2.18574 c -2.5358,-31.19108 66.21475,-94.962518 48.95305,-43.816894 z"
       id="path2-1"
       sodipodi:nodetypes="czccccccccccccc" />
    <path
       style="fill:#d4d4d8;fill-opacity:1;stroke:none;stroke-width:0.727204;stroke-opacity:1"
       d="m 217.86713,-73.849281 1.73635,-1.446917 c 3.65318,-15.796195 -9.71728,-9.609524 -13.42915,-4.799659 -3.71187,4.809826 -26.17372,31.384445 -36.02733,25.668585 l -5.80021,3.16377 c -1.34517,6.15141 -8.81598,17.58867 -24.44194,15.60041 -0.30841,5.11178 -0.46122,10.27544 -11.42914,11.83397 -3.03065,0.73345 -3.70511,3.79034 0.63023,4.81844 8.93175,0.64286 10.94348,-3.68243 13.64126,-7.51517 3.80002,-4.41124 8.88428,-8.7326 16.94185,-7.07331 l 2.10917,-2.02129 c 4.49975,-10.88977 15.58783,-15.46787 25.9378,-14.36565 2.67129,-10.322606 20.68085,-29.749 30.13111,-23.863179 z"
       id="path3-3"
       sodipodi:nodetypes="cczcccccccccc" />
    <path
       style="fill:#d4d4d8;fill-opacity:1;stroke:none;stroke-width:0.727204;stroke-opacity:1"
       d="m 184.47187,-42.299482 c -0.95951,-1.63847 3.82938,-7.37583 7.1184,-7.46998 8.18256,0.0869 13.12943,-3.20522 19.33409,-7.557916 -6.00291,7.586986 -22.75903,21.335166 -26.45249,15.027896 z"
       id="path4-6"
       sodipodi:nodetypes="sccs" />
    <path
       style="fill:#d4d4d8;fill-opacity:1;stroke:none;stroke-width:0.727204;stroke-opacity:1"
       d="m 180.42921,-39.399382 c -5.26069,2.25971 -10.49019,4.65487 -16.43395,3.95475 -2.38322,1.62886 -3.03092,3.70643 -4.30621,6.59119 -4.4027,3.13799 -8.20006,3.69789 -14.50065,4.74558 -2.18865,0.62661 -3.06799,6.05987 1.23035,5.44872 6.55431,-1.72381 12.51863,-2.98432 14.50061,-9.05186 15.17413,-2.24712 16.75605,-7.04273 19.50985,-11.68838 z"
       id="path5"
       sodipodi:nodetypes="ccccccc" />
    <path
       style="fill:#d4d4d8;fill-opacity:1;stroke:none;stroke-width:0.727204;stroke-opacity:1"
       d="m 127.91082,-53.969492 c -7.318,-3.01085 -15.76305,-3.290195 -22.24687,8.20274 -9.224688,-0.6754 -6.258018,-26.215367 9.07276,-30.822498 15.33075,-4.60713 19.84887,10.855824 13.17411,22.619758 z"
       id="path6"
       sodipodi:nodetypes="cczc" />
    <path
       style="fill:#d4d4d8;fill-opacity:1;stroke:none;stroke-width:0.727204;stroke-opacity:1"
       d="m 105.91253,-32.965452 c -8.349428,-3.21033 -13.257788,1.35938 -16.281268,5.7171 -3.453802,-1.05509 -10.310938,-10.61132 0.12423,-16.03271 10.435178,-5.4214 17.756688,4.72282 16.157188,10.31561 z"
       id="path7"
       sodipodi:nodetypes="cczcc" />
    <ellipse
       style="fill:#d4d4d8;fill-opacity:1;stroke:none;stroke-width:0.727204;stroke-opacity:1"
       id="path8"
       cx="24.097736"
       cy="-89.373337"
       rx="4.9303737"
       ry="8.3740263"
       transform="rotate(65.229383)" />
    <ellipse
       style="fill:#d4d4d8;fill-opacity:1;stroke:none;stroke-width:0.628018;stroke-opacity:1"
       id="path8-5"
       cx="36.756245"
       cy="-98.29808"
       rx="4.1307168"
       ry="7.4544921"
       transform="matrix(0.50983605,0.86027159,-0.89436814,0.44733167,0,0)" />
    <ellipse
       style="fill:#d4d4d8;fill-opacity:1;stroke:none;stroke-width:0.569348;stroke-opacity:1"
       id="path8-5-6"
       cx="43.978153"
       cy="-110.72773"
       rx="3.7448158"
       ry="6.7580767"
       transform="matrix(0.50983605,0.86027159,-0.89436814,0.44733167,0,0)" />
    <path
       id="text8"
       style="font-weight:bold;font-size:6.66268px;font-family:'Century Gothic';-inkscape-font-specification:'Century Gothic Bold';fill:#d4d4d8;fill-opacity:1;stroke:none;stroke-width:0.0655778;stroke-opacity:1"
       d="m 76.862195,-130.39177 c -2.409971,0.61478 -4.663238,1.34865 -6.761719,2.20116 -2.639494,1.07384 -4.43037,2.12379 -5.373044,3.14846 -0.03288,0.034 -0.06134,0.22904 -0.08595,0.58983 l 0.04883,0.46681 c 1.254168,-0.93449 3.234383,-1.92733 5.939452,-2.97657 1.901748,-0.73776 3.658594,-1.32687 5.273438,-1.76953 0.524622,-0.67215 0.844226,-1.2257 0.958984,-1.66016 z m -64.343748,2.15233 c -0.05737,0 -0.260787,0.0733 -0.613281,0.22072 -0.40986,0.17197 -0.759976,0.29178 -1.046876,0.35755 -0.655775,0.15571 -1.6181113,0.23244 -2.8886743,0.23244 -0.327874,0 -0.81179,-0.0537 -1.451169,-0.16026 -0.631185,-0.11489 -1.106094,-0.17196 -1.425781,-0.17196 -0.770537,-0.008 -1.156252,0.34544 -1.156252,1.0586 0,0.31144 0.09116,0.59354 0.271483,0.84764 0.196724,0.28686 0.44123,0.42969 0.736328,0.42969 0.155754,0 0.250431,-0.11074 0.2832,-0.33222 0.05737,-0.35263 0.212674,-0.52732 0.466798,-0.52732 0.22953,0 0.567118,0.0446 1.009765,0.13455 0.442647,0.082 0.778291,0.12322 1.007815,0.12322 0.901689,0 1.758788,-0.13229 2.5703093,-0.39455 1.041044,-0.336 1.819517,-0.85206 2.335941,-1.54881 0.03288,-0.0412 0.03984,-0.0945 0.02343,-0.16025 -0.0083,-0.0737 -0.04928,-0.10923 -0.123062,-0.10923 z m 63.839842,1.31448 c -6.516764,2.20501 -10.430638,3.8852 -11.742187,5.04102 -0.163956,0.20485 -0.246085,0.71384 -0.246085,1.52538 0,0.96726 0.09819,1.55289 0.294916,1.75782 0.885298,0.43442 1.808508,0.97194 2.767578,1.61133 1.409919,0.92628 2.115236,1.61555 2.115236,2.06638 0,1.04927 -1.742759,1.57425 -5.226562,1.57425 H 64.20984 63.264528 c -0.459043,0 -0.958984,-0.3447 -1.5,-1.03321 -0.114747,-0.14741 -0.205909,-0.144 -0.271484,0.0113 l -0.775393,1.75782 c 0.754145,0.8197 1.132815,1.3697 1.132815,1.6484 0,0.30312 -0.198349,0.76218 -0.591798,1.37696 -0.303307,0.47546 -0.610382,0.88074 -0.921876,1.21682 -0.680364,0.73772 -1.237421,1.23768 -1.671874,1.49998 -0.524621,0.31975 -1.13879,0.48049 -1.843748,0.48049 -0.38527,0 -0.81558,-0.0412 -1.291019,-0.12321 -0.09838,-0.0151 -0.17348,-0.0265 -0.222652,-0.0265 -0.204925,0 -0.306633,0.0537 -0.306633,0.16025 0,0.10658 0.114218,0.22979 0.343748,0.36926 1.024649,0.61478 1.856712,0.92186 2.496095,0.92186 1.221381,0 2.34449,-0.68927 3.369139,-2.06642 0.860704,-1.15578 1.385684,-2.32701 1.574219,-3.5156 0.07378,-0.46726 0.323754,-0.70118 0.750001,-0.70118 h 1.47656 c 0.836114,0 1.655663,-0.0983 2.458987,-0.2948 0.967268,-0.23773 1.67063,-0.58942 2.113281,-1.05664 0.483632,-0.51644 0.726561,-1.25579 0.726561,-2.21484 0,-1.2296 -0.562533,-2.35272 -1.685548,-3.36915 -0.459042,-0.41805 -1.478487,-1.10188 -3.060544,-2.05274 -0.180321,-0.10658 -0.271484,-0.19238 -0.271484,-0.25776 0,-0.0575 0.08217,-0.13947 0.246085,-0.24605 0.729551,-0.48363 2.295489,-1.16039 4.697265,-2.02926 1.032847,-0.3772 2.684459,-0.94315 4.955078,-1.69728 0.09018,-0.0658 0.295559,-0.42977 0.615235,-1.09375 0.286904,-0.59022 0.470763,-1.00449 0.552734,-1.24218 z m -93.607424,1.70899 c -0.147553,0 -0.438596,0.3857 -0.873045,1.15623 -0.278702,0.50003 -0.41797,0.82862 -0.41797,0.98438 0.0083,0.97546 0.06883,2.00039 0.183609,3.07423 0.188523,1.70498 0.320769,2.88521 0.39453,3.541 0.237732,2.27883 0.310866,3.93396 0.220725,4.96679 -0.0083,0.13115 0.03628,0.20069 0.134778,0.20901 0.09838,0.008 0.17348,-0.034 0.222651,-0.12321 0.475435,-0.90989 0.712891,-1.99193 0.712891,-3.24609 0,-0.13946 -0.0035,-0.26268 -0.01172,-0.36926 -0.336075,-4.20518 -0.505859,-6.97088 -0.505859,-8.29882 0,-0.52464 0.01814,-0.971 0.0508,-1.33984 0.03288,-0.36888 -0.0049,-0.55469 -0.111345,-0.55469 z m 25.7597667,0 c -0.147553,0 -0.438595,0.3857 -0.873048,1.15623 -0.278702,0.50003 -0.417967,0.82862 -0.417967,0.98438 0.0083,0.97546 0.06883,2.00039 0.18361,3.07423 0.188523,1.70498 0.320768,2.88521 0.39453,3.541 0.237732,2.27883 0.310866,3.93396 0.220724,4.96679 -0.0083,0.13115 0.03628,0.20069 0.134778,0.20901 0.09838,0.008 0.17348,-0.034 0.222652,-0.12321 0.475438,-0.90989 0.712891,-1.99193 0.712891,-3.24609 0,-0.13946 -0.0035,-0.26268 -0.01172,-0.36926 -0.336075,-4.20518 -0.505859,-6.97088 -0.505859,-8.29882 0,-0.52464 0.01814,-0.971 0.0508,-1.33984 0.03288,-0.36888 -0.0049,-0.55469 -0.111344,-0.55469 z m 19.9804693,0.20901 -1.167968,1.69727 1.648437,1.11912 1.130861,-1.68359 z m -91.517579,0.93554 -0.970704,1.49998 1.451172,0.95902 0.996095,-1.37696 z m 36.001954,0.66407 -1.167969,1.69727 1.648438,1.11719 1.130861,-1.68359 z m -61.035157,1.07032 c -0.04917,0 -0.118828,0.0695 -0.20897,0.20901 -0.508225,0.81154 -0.763672,1.32752 -0.763672,1.54881 0,0.54924 0.110702,1.36524 0.332031,2.44728 0.221329,1.08204 0.332032,1.89612 0.332032,2.44532 0,1.26236 -1.114114,1.89452 -3.343748,1.89452 -1.377128,0 -2.098485,-0.3857 -2.164063,-1.15623 -0.01625,-0.22942 -0.0915,-0.34356 -0.222652,-0.34356 -0.106545,0 -0.186747,0.0983 -0.244158,0.29481 -0.352478,1.14757 -0.529296,1.82789 -0.529296,2.04102 0,0.41805 0.37319,0.72514 1.119141,0.92186 0.475438,0.12284 1.007459,0.18558 1.597655,0.18558 2.01651,0 3.361036,-0.85357 4.033202,-2.55859 0.344277,2.02469 1.185343,3.03711 2.521485,3.03711 h 0.996095 v -0.0151 c 0.956474,-0.0401 1.699431,-0.4408 2.212891,-1.22653 0.400142,0.82477 1.16293,1.23711 2.287109,1.24021 v 0.002 h 0.67578 0.06055 v -0.0189 c 0.306104,-0.0227 0.847332,-0.24604 1.660157,-0.70703 0.544415,-0.31106 0.802507,-0.51266 0.832029,-0.62695 0.17178,0.0643 0.48251,0.24151 1.171877,0.72461 1.114817,0.77873 1.946883,1.16795 2.496094,1.16795 0.295106,0 0.503996,-0.13946 0.626952,-0.41798 0.08198,-0.1886 0.144567,-0.5582 0.185537,-1.1074 0.901701,0.64407 1.799562,0.96896 2.693359,0.98045 v 0.004 h 0.749998 c 1.073832,0 1.918417,-0.46239 2.533206,-1.38868 0.229531,0.40986 0.454454,0.68837 0.67578,0.83592 0.303307,0.20485 0.753169,0.30652 1.351563,0.30652 0.795125,0 1.671787,-0.62672 2.630861,-1.88088 0.598393,0.67219 1.271633,1.00781 2.017576,1.00781 0.590199,0 1.058063,-0.34469 1.402344,-1.03321 0.278703,-0.5574 0.417967,-1.18409 0.417967,-1.88084 0,-0.73777 -0.189317,-1.29479 -0.566404,-1.67188 -0.196724,-0.19653 -0.332485,-0.18066 -0.40625,0.0488 -0.204926,0.63939 -0.360227,1.20896 -0.466798,1.70899 0.286904,0.23773 0.429687,0.46813 0.429687,0.68946 0,0.24605 -0.269518,0.319 -0.810546,0.22073 -0.336076,-0.0654 -0.664683,-0.23698 -0.984374,-0.51564 -0.196725,-0.17197 -0.319975,-0.47569 -0.369147,-0.91015 -0.04097,-0.36057 -0.130167,-0.541 -0.269518,-0.541 -0.07378,0 -0.213052,0.23735 -0.41797,0.71289 -0.254098,0.59018 -0.520124,1.03302 -0.798826,1.32813 -0.450845,0.47542 -1.020424,0.71289 -1.708985,0.71289 -0.795126,0 -1.19336,-0.31597 -1.19336,-0.9473 0,-0.0737 0.0035,-0.17915 0.01172,-0.31823 0.01625,-0.14741 0.02532,-0.25815 0.02532,-0.33223 0,-0.15571 -0.05008,-0.23433 -0.148422,-0.23433 -0.139352,0 -0.294652,0.18029 -0.466795,0.54101 -0.221329,0.45906 -0.471296,0.80016 -0.750002,1.02149 -0.46724,0.36057 -1.106445,0.54104 -1.917966,0.54104 h -0.234369 -0.910155 c -0.704958,0 -1.385243,-0.2589 -2.041017,-0.77541 l -1.5,-1.43943 c -0.532815,-0.51644 -0.991684,-0.77345 -1.376954,-0.77345 -0.541013,0 -1.142668,0.51599 -1.806641,1.54882 -0.614789,0.95905 -1.484405,1.43947 -2.60742,1.43947 h -0.701174 c -0.942675,0 -1.494259,-0.34469 -1.6582,-1.03321 -0.09838,-0.41805 -0.209083,-0.62695 -0.332031,-0.62695 -0.07378,0 -0.193474,0.14287 -0.35743,0.42966 -0.204926,0.36056 -0.417351,0.62672 -0.638673,0.79884 -0.368881,0.28686 -0.865296,0.43166 -1.488283,0.43166 h -0.220687 -0.800779 c -0.868903,0 -1.413442,-0.7875 -1.634767,-2.36134 l -0.873048,-6.32031 c -0.02457,-0.20485 -0.07272,-0.30652 -0.146495,-0.30652 z m 26.619141,0.76169 -0.70117,1.07032 -1.425781,-0.91015 -1.033206,1.54882 1.488283,0.95898 0.798826,-1.13084 1.451173,0.91015 0.958983,-1.46483 z m -21.357422,0.0858 -1.167969,1.69727 1.648438,1.11916 1.130861,-1.68556 z m 59.990234,1.29101 c -0.05737,0 -0.130545,0.0945 -0.220686,0.28309 l -0.638673,1.35159 c 0.483633,0.72953 0.917465,1.55808 1.302735,2.48436 0.475435,1.13121 0.712891,2.07398 0.712891,2.82811 0,0.27855 -0.36771,0.64645 -1.10547,1.10547 -1.008253,0.63118 -2.25459,0.94727 -3.738282,0.94727 -0.926282,0 -1.685193,-0.21581 -2.275389,-0.65038 -0.67217,-0.48363 -1.007814,-1.17291 -1.007814,-2.06642 0,-0.77874 0.233952,-1.58223 0.701174,-2.41013 0.09018,-0.16403 0.134778,-0.29065 0.134778,-0.38087 0,-0.0658 -0.02494,-0.0998 -0.07423,-0.0998 -0.09018,0 -0.207912,0.10016 -0.355465,0.29708 -0.827913,1.08204 -1.242187,2.31038 -1.242187,3.68749 0,2.41818 1.408683,3.62695 4.228517,3.62695 1.664027,0 2.992516,-0.49444 3.984374,-1.4863 0.991861,-0.99186 1.488283,-2.32037 1.488283,-3.98438 0,-2.0657 -0.562533,-3.84404 -1.685548,-5.33593 -0.09838,-0.13115 -0.168,-0.1973 -0.20897,-0.1973 z m -20.089844,0.33184 c -0.270501,0 -0.57055,0.27855 -0.898436,0.83596 -0.286904,0.49183 -0.429687,0.82393 -0.429687,0.99609 0,0.0491 0.253493,0.20107 0.761719,0.45506 -1.08203,0.90172 -1.623047,1.81942 -1.623047,2.75391 0,0.50003 0.123213,0.8482 0.369147,1.04493 -0.368882,0.27855 -0.983044,0.41798 -1.843748,0.41798 h -0.898439 v 0.0151 h -0.417971 c 0,-0.63939 -0.110702,-1.28761 -0.332031,-1.94336 -0.295106,-0.86891 -0.700373,-1.30277 -1.216796,-1.30277 -0.573801,0 -1.127339,0.46946 -1.660154,1.41211 -0.500032,0.87712 -0.750002,1.68609 -0.750002,2.42385 0,0.60658 0.310602,1.02085 0.933593,1.24218 0.434452,0.15572 1.107692,0.23244 2.017579,0.23244 0,0.95085 -0.664244,1.9347 -1.992189,2.95117 -1.262366,0.96726 -2.388997,1.45115 -3.380859,1.45115 -0.262299,0 -0.648023,-0.0695 -1.156248,-0.20901 -0.508226,-0.13946 -0.872428,-0.20901 -1.09375,-0.20901 -0.139351,0 -0.20897,0.0378 -0.20897,0.1115 0,0.13946 0.240983,0.39636 0.724611,0.77344 0.934477,0.73773 1.680869,1.1074 2.238282,1.1074 1.442702,0 2.774709,-0.77491 3.99609,-2.32422 1.049243,-1.32793 1.618817,-2.57427 1.708986,-3.73825 h 1.339842 v -0.0113 h 0.246085 c 0.450845,0 0.85612,-0.0949 1.216796,-0.28309 0.188523,-0.0983 0.545692,-0.3394 1.070313,-0.72461 0.713156,-0.52464 1.163025,-0.78712 1.351563,-0.78712 0.360681,0 0.942769,0.16252 1.746093,0.49024 0.811521,0.32806 1.411608,0.49217 1.796874,0.49217 0.918085,0 1.376954,-0.76948 1.376954,-2.31054 0,-0.5246 -0.271484,-1.18182 -0.8125,-1.96876 -0.475438,-0.68855 -1.0235,-1.30624 -1.646483,-1.85544 -1.164,-1.02467 -2.008585,-1.53714 -2.533206,-1.53714 z m 72.298829,0.0741 c -0.606592,0 -1.160126,0.45887 -1.660154,1.37696 -0.450845,0.8279 -0.675783,1.59386 -0.675783,2.29882 0,0.45086 0.151785,0.82054 0.455077,1.10744 0.311509,0.28687 0.695256,0.42966 1.154298,0.42966 1.073832,0 1.743549,-0.41428 2.00586,-1.24218 0.254098,0.22942 0.380859,0.54913 0.380859,0.95898 0,0.18028 -0.03742,0.3069 -0.111345,0.38086 -0.385266,0.39349 -1.094105,0.69351 -2.126952,0.89843 -0.778733,0.15572 -1.566202,0.23433 -2.361327,0.23433 h -0.664063 c -0.557409,0 -1.048354,-0.36623 -1.47461,-1.09572 -0.139351,-0.22942 -0.266116,-0.22942 -0.380859,0 l -0.726561,1.41407 c -0.06557,0.12284 -0.06557,0.23018 0,0.32013 0.295105,0.40165 0.491475,0.68371 0.589844,0.84763 0.163956,0.2623 0.246085,0.63553 0.246085,1.11916 0,1.36074 -0.117732,2.21431 -0.355464,2.55859 -0.401662,0.58201 -1.13554,1.02837 -2.201174,1.33984 -0.868902,0.25398 -1.742041,0.38086 -2.619141,0.38086 -0.95907,0 -1.816169,-0.20182 -2.57031,-0.60351 -0.926282,-0.49183 -1.388674,-1.17562 -1.388674,-2.05274 0,-0.97546 0.332108,-1.8932 0.996095,-2.75391 0.05737,-0.0737 0.08595,-0.13985 0.08595,-0.1973 0,-0.0575 -0.03213,-0.0858 -0.09766,-0.0858 -0.06557,0.008 -0.131678,0.0491 -0.197253,0.12322 -1.123015,1.27876 -1.685545,2.54464 -1.685545,3.7988 0,1.17222 0.401753,2.09896 1.205076,2.77931 0.754141,0.64759 1.725472,0.97267 2.914061,0.97267 2.254228,0 3.952388,-0.59108 5.091799,-1.77151 1.073832,-1.12301 1.691524,-2.82822 1.855468,-5.11521 h 1.525391 0.380859 c 0.606592,0 1.318953,-0.12321 2.138672,-0.36926 0.983664,-0.29518 1.669422,-0.6593 2.054688,-1.09376 0.450844,-0.50823 0.675783,-1.47953 0.675783,-2.91405 0,-1.16402 -0.300057,-2.15686 -0.898439,-2.97657 -0.516423,-0.71316 -1.035927,-1.06836 -1.560548,-1.06836 z m -9.455078,0.56447 -1.167969,1.69724 1.646483,1.11915 1.130862,-1.68555 z m -19.49023426,1.26758 c -0.541013,0 -1.064039,0.51243 -1.57226504,1.5371 -0.44265,0.89348 -0.664063,1.65044 -0.664063,2.27342 0,0.53284 0.151786,0.98113 0.455078,1.34181 0.32787404,0.38525 0.74920104,0.57615 1.26562404,0.57615 0.40986,0 0.947358,-0.20901 1.61132996,-0.62695 -0.06557,0.91809 -0.68170196,1.91448 -1.84570196,2.98829 -1.12301504,1.03287 -2.15498104,1.63646 -3.09765954,1.80861 -0.7459427,0.13115 -1.5654879,0.12548 -2.4589833,-0.0151 -0.2377323,-0.0408 -0.3574299,0.004 -0.3574299,0.13493 0,0.10659 0.1036724,0.2298 0.3085984,0.36926 0.9754658,0.66399 1.8235691,0.9961 2.5449222,0.9961 1.5492661,0 2.91883114,-0.84809 4.10742014,-2.54491 1.09022796,-1.55747 1.63476696,-3.13943 1.63476696,-4.7461 0,-0.82791 -0.132208,-1.64395 -0.39453,-2.44725 -0.36068,-1.09844 -0.873139,-1.64647 -1.53711096,-1.64647 z m 51.49609426,0 c -0.541013,0 -1.065993,0.51243 -1.574219,1.5371 -0.442647,0.89348 -0.664063,1.65044 -0.664063,2.27342 0,0.53284 0.151786,0.98113 0.455078,1.34181 0.327874,0.38525 0.749204,0.57615 1.265628,0.57615 0.409859,0 0.947353,-0.20901 1.611326,-0.62695 -0.06558,0.91809 -0.679748,1.91448 -1.843748,2.98829 -1.123015,1.03287 -2.156935,1.63646 -3.09961,1.80861 -0.745946,0.13115 -1.565492,0.12548 -2.458987,-0.0151 -0.237732,-0.0408 -0.355465,0.004 -0.355465,0.13493 0,0.10659 0.101707,0.2298 0.306633,0.36926 0.975466,0.66399 1.82357,0.9961 2.544923,0.9961 1.54927,0 2.918831,-0.84809 4.107424,-2.54491 1.090224,-1.55747 1.634763,-3.13943 1.634763,-4.7461 0,-0.82791 -0.13028,-1.64395 -0.392576,-2.44725 -0.36068,-1.09844 -0.873139,-1.64647 -1.537111,-1.64647 z m -10.58789,0.0113 c -0.278702,0 -0.709016,0.51243 -1.291014,1.5371 -0.639383,1.12301 -0.958987,2.11937 -0.958987,2.98828 0,0.70496 0.24291,1.24951 0.726565,1.63476 0.36068,0.28687 0.753433,0.4297 1.179685,0.4297 1.368929,0 2.302707,-0.36775 2.802735,-1.10548 0.147553,-0.22148 0.25474,-0.66062 0.320315,-1.31641 0.05737,-0.59021 0.06637,-1.0526 0.02532,-1.38867 -0.09018,-0.71316 -0.397255,-1.34884 -0.921873,-1.90624 -0.557408,-0.58201 -1.186053,-0.87304 -1.882813,-0.87304 z m -12.601564,0.0378 c 0.245933,0 0.490412,0.1304 0.736331,0.39258 0.245934,0.25399 0.369146,0.50411 0.369146,0.75001 0,0.15572 -0.151785,0.2846 -0.455077,0.38283 -0.245934,0.082 -0.461855,0.12094 -0.650393,0.12094 -0.442647,0 -0.664059,-0.15874 -0.664059,-0.47852 0,-0.77874 0.221405,-1.16799 0.664059,-1.16799 z m -37.8789063,0.66406 c -0.057373,0.0189 -0.107263,0.0813 -0.1523528,0.18369 l -0.7636689,1.7461 c 1.172198,1.22136 1.7597634,2.20876 1.7597634,2.96289 0,0.68035 -0.6446816,1.57852 -1.9316414,2.69336 -1.336138,1.15578 -2.487809,1.73435 -3.455077,1.73435 -0.549211,0 -1.07771,-0.10356 -1.585935,-0.30841 -0.04101,-0.0151 -0.07657,-0.0227 -0.10938,-0.0227 -0.13115,0 -0.197254,0.0661 -0.197254,0.1973 0,0.082 0.03553,0.15496 0.10938,0.22072 0.36068,0.336 0.850057,0.62362 1.464847,0.86132 0.614789,0.24604 1.166369,0.36737 1.658203,0.36737 1.024649,0 2.099641,-0.65175 3.2226558,-1.95512 1.1803956,-1.3689 1.7695295,-2.92233 1.7695295,-4.66012 0,-1.68045 -0.5320214,-2.99992 -1.5976555,-3.95901 -0.069657,-0.0616 -0.134022,-0.0809 -0.1913952,-0.0605 z m -33.6464847,0.4297 c 0.237732,0 0.434098,0.13908 0.589845,0.41798 0.122948,0.22941 0.185537,0.47595 0.185537,0.73829 0,0.5246 -0.296504,0.78709 -0.886719,0.78709 -0.221329,0 -0.499854,-0.0858 -0.835941,-0.25777 -0.385266,-0.1886 -0.578124,-0.37795 -0.578124,-0.5664 0,-0.27061 0.189316,-0.52947 0.566408,-0.77541 0.352478,-0.22941 0.672083,-0.34356 0.958983,-0.34356 z m 1.746093,0.50392 c 0.04917,-0.008 0.131338,0.0302 0.246085,0.1115 0.975466,0.71316 1.614671,1.39699 1.917966,2.05274 0.05737,0.12283 0.07344,0.2177 0.04883,0.28308 -0.03288,0.0574 -0.09343,0.0733 -0.183572,0.0488 -1.131212,-0.32768 -1.984792,-0.59036 -2.558596,-0.78709 0.38527,-0.40988 0.540574,-0.92231 0.466798,-1.53713 -0.0083,-0.0983 0.01323,-0.15534 0.06251,-0.17197 z m 41.05468674,0.43162 c 0.270501,0 0.51696,0.15534 0.738282,0.46681 0.188523,0.2623 0.30825796,0.54085 0.35742996,0.83592 -0.31150896,0.1886 -0.62757496,0.28309 -0.94726296,0.28309 -0.582002,0 -0.873048,-0.2555 -0.873048,-0.76369 0,-0.1886 0.07317,-0.37229 0.220686,-0.55272 0.147553,-0.18028 0.315364,-0.26948 0.503906,-0.26948 z m 51.49609826,0 c 0.270501,0 0.515002,0.15534 0.736328,0.46681 0.188522,0.2623 0.30822,0.54085 0.35743,0.83592 -0.311509,0.1886 -0.627576,0.28309 -0.947267,0.28309 -0.582002,0 -0.873048,-0.2555 -0.873048,-0.76369 0,-0.1886 0.0751,-0.37229 0.222652,-0.55272 0.147552,-0.18028 0.315363,-0.26948 0.503909,-0.26948 z m -10.61133,0.24605 c 0.729551,0 1.327684,0.19654 1.794921,0.58987 0.377083,0.31144 0.564453,0.59705 0.564453,0.85935 0,0.25399 -0.249978,0.45597 -0.749998,0.60352 -0.40986,0.12283 -0.82218,0.18368 -1.240233,0.18368 -0.754144,0 -1.132815,-0.24453 -1.132815,-0.73632 0,-0.19692 0.08217,-0.48428 0.246085,-0.86132 0.188523,-0.42626 0.361814,-0.6387 0.517576,-0.6387 z m -115.728515,0.45313 c 0.286904,0 0.527875,0.30349 0.724607,0.91018 0.172158,0.5328 0.241777,0.9631 0.20897,1.29102 -0.8771,-0.52464 -1.516305,-0.94243 -1.91797,-1.25394 0.401665,-0.63118 0.730265,-0.94726 0.984378,-0.94726 z m 24.68945,0.50589 c 0.311509,0 0.590022,0.14286 0.835941,0.42966 0.213128,0.24604 0.352403,0.53699 0.417967,0.87307 -0.163956,0.0575 -0.338797,0.0858 -0.527343,0.0858 -0.827917,0 -1.242187,-0.24983 -1.242187,-0.75001 0,-0.42626 0.171326,-0.63867 0.515622,-0.63867 z m 54.3847677,18.564434 c -0.09181,0 -0.209235,0.09827 -0.353499,0.294803 -1.062539,1.469178 -1.580924,2.284006 -1.55469,2.441424 0.27549,1.770897 0.623203,5.107616 1.042968,10.013669 0.32795,3.777903 0.558278,5.930381 0.689454,6.455055 0.498474,1.980813 1.548076,2.970709 3.148437,2.970709 h 1.671878 9.1484373 0.275377 c 1.442952,0 2.722885,-0.753184 3.837891,-2.261707 0.485355,1.429833 1.377127,2.144542 2.675781,2.144542 1.285538,0 2.505796,-0.834067 3.660158,-2.500007 0.682122,1.66594 1.620741,2.500007 2.814452,2.500007 1.062535,0 1.920287,-0.7423 2.576172,-2.22463 0.170532,0.590324 0.466953,1.108686 0.886718,1.554708 0.485356,0.524712 1.003745,0.787087 1.55469,0.787087 h 1.455077 v -0.0189 c 0.560454,-0.01134 1.245966,-0.06614 2.164063,-0.197291 v 1.201172 h 0.945312 c 0.09181,1.665978 0.465207,3.199937 1.121095,4.60354 0.826417,1.77086 1.869604,2.656252 3.128905,2.656252 1.010063,0 1.84216,-0.576114 2.498048,-1.730495 0.57718,-1.010041 0.867186,-2.106519 0.867186,-3.287093 0,-1.062538 -0.334903,-1.960743 -1.003906,-2.695332 1.128124,-0.380409 2.288708,-0.563905 3.482422,-0.550753 l 0.3535,0.0038 v 0.01512 h 10.310547 0.177751 c 1.613481,0 2.852981,-0.41382 3.718749,-1.240214 0.341065,-0.328063 0.669551,-0.944504 0.984375,-1.849625 0.301719,-0.852662 0.453127,-1.546167 0.453127,-2.083994 0,-1.66594 -0.354142,-3.084473 -1.062501,-4.251931 -0.209877,-0.340913 -0.433803,-0.300472 -0.669921,0.119055 l -1.337892,2.322255 c 1.154358,1.377374 1.730468,2.335219 1.730468,2.873046 0,0.288756 -0.563282,0.529814 -1.691407,0.726576 -0.839535,0.144378 -1.534991,0.216945 -2.085936,0.216945 H 61.664937 52.5165 50.80361 c -0.69524,0 -1.710822,0.190111 -3.048827,0.570331 -1.33801,0.380409 -2.336304,0.570293 -2.992188,0.570293 1.101887,-0.905121 1.818538,-1.592202 2.146484,-2.064454 0.878888,-1.272415 1.31836,-2.919307 1.31836,-4.939464 0,-1.757745 -0.36892,-2.636712 -1.103516,-2.636712 -1.04942,0 -2.235659,1.056038 -3.56055,3.167962 -0.944473,1.508561 -1.699608,3.023282 -2.263668,4.544958 -1.04942,0.524674 -2.269678,0.787086 -3.660159,0.787086 h -0.667975 c -0.813301,0 -1.384947,-0.281574 -1.712889,-0.845707 -0.170533,-0.288756 -0.29435,-0.800542 -0.37304,-1.53513 -0.06558,-0.564095 -0.202242,-0.845708 -0.412112,-0.845708 -0.170532,0 -0.355956,0.255874 -0.552733,0.767585 -0.249222,0.668976 -0.477615,1.14051 -0.6875,1.416 -0.380413,0.511597 -0.905216,0.767584 -1.574219,0.767584 -0.813301,0 -1.357341,-0.255874 -1.632812,-0.767584 -0.144303,-0.275528 -0.229644,-0.747024 -0.255874,-1.416 -0.01323,-0.511597 -0.117695,-0.767585 -0.314457,-0.767585 -0.170532,0 -0.388036,0.249449 -0.650392,0.748045 -0.32795,0.642746 -0.66926,1.107892 -1.023436,1.396459 -0.603417,0.498482 -1.39703,0.748044 -2.38086,0.748044 -1.154359,0 -1.730468,-0.544025 -1.730468,-1.632793 v -0.336 c 0,-0.13115 0.0064,-0.235843 0.01965,-0.314457 v -0.0189 c 0,-0.393524 -0.119357,-0.589833 -0.355465,-0.589833 -0.157417,0 -0.372963,0.281575 -0.648434,0.845707 -0.773949,1.587213 -2.07312,2.380838 -3.896485,2.380838 H 18.061532 8.0869207 c -1.128125,0 -1.870432,-0.399042 -2.224608,-1.199206 -0.170532,-0.393524 -0.307162,-1.357795 -0.412112,-2.892586 l -0.984374,-14.423829 c -0.02608,-0.328063 -0.09233,-0.492208 -0.197253,-0.492208 z m -95.2539067,0.0189 c -0.236107,0 -0.701246,0.616554 -1.396483,1.849587 -0.446003,0.800202 -0.669925,1.324989 -0.669925,1.574249 0.01323,1.560982 0.11127,3.201486 0.294917,4.919924 0.30172,2.728479 0.512799,4.61658 0.63086,5.666003 0.380413,3.646715 0.497809,6.296391 0.353499,7.949216 -0.01323,0.209764 0.05938,0.322772 0.216794,0.336 0.157417,0.01134 0.274809,-0.05291 0.353499,-0.197291 0.76083,-1.456063 1.140627,-3.188296 1.140627,-5.195301 0,-0.222992 -0.0064,-0.419338 -0.01965,-0.589871 -0.537827,-6.729373 -0.806642,-11.156145 -0.806642,-13.281222 0,-0.839546 0.02759,-1.554255 0.08009,-2.144542 0.05246,-0.590286 -0.0072,-0.886715 -0.177751,-0.886715 z m 73.689453,0 c -0.236107,0 -0.703196,0.616554 -1.398436,1.849587 -0.446004,0.800202 -0.667972,1.324989 -0.667972,1.574249 0.01323,1.560982 0.11127,3.201486 0.294917,4.919924 0.30172,2.728479 0.510845,4.61658 0.628906,5.666003 0.380413,3.646715 0.499763,6.296391 0.355464,7.949216 -0.01323,0.209764 0.05938,0.322772 0.216794,0.336 0.157417,0.01134 0.27481,-0.05291 0.353499,-0.197291 0.760831,-1.456063 1.140628,-3.188296 1.140628,-5.195301 0,-0.222992 -0.0064,-0.419338 -0.01965,-0.589871 -0.537827,-6.729373 -0.806642,-11.156145 -0.806642,-13.281222 0,-0.839546 0.0257,-1.554255 0.07812,-2.144542 0.05246,-0.590286 -0.0053,-0.886715 -0.175786,-0.886715 z m -38.390623,0.336 -1.869143,2.714834 2.63672,1.791043 1.810548,-2.69726 z m 22.748047,2.556661 -1.871097,2.7168 2.636719,1.789039 1.810549,-2.695294 z m 27.841795,0.255874 -1.8691389,2.714872 2.6367156,1.791005 1.810549,-2.695332 z m -21.093751,4.880882 c -0.09181,0 -0.209235,0.149291 -0.353499,0.451162 l -1.023436,2.16601 c 0.773945,1.167496 1.469401,2.492296 2.085937,3.974626 0.760826,1.810243 1.140623,3.318539 1.140623,4.52538 0,0.445984 -0.590887,1.034948 -1.771483,1.769537 -1.613481,1.010041 -3.606161,1.515628 -5.980468,1.515628 -1.482304,0 -2.696148,-0.347716 -3.640626,-1.042998 -1.075654,-0.773934 -1.61328,-1.874835 -1.61328,-3.304668 0,-1.246186 0.37338,-2.532548 1.121091,-3.857423 0.144302,-0.2623 0.216794,-0.465071 0.216794,-0.609374 0,-0.105071 -0.04044,-0.158362 -0.119131,-0.158362 -0.144302,0 -0.334186,0.157984 -0.570316,0.472668 -1.32489,1.731553 -1.986327,3.69857 -1.986327,5.902337 0,3.869745 2.255082,5.804674 6.767577,5.804674 2.6629,0 4.789709,-0.793587 6.376955,-2.380838 1.587247,-1.58725 2.380861,-3.712101 2.380861,-6.375005 0,-3.305688 -0.90014,-6.151634 -2.697268,-8.539049 -0.157417,-0.209763 -0.268384,-0.314456 -0.333997,-0.314456 z m -55.291015,0.609373 c -0.196763,0 -0.636239,0.92383 -1.31836,2.773418 -0.118073,0.328063 -0.05839,0.532648 0.177751,0.611338 1.167477,0.406639 2.439043,1.127773 3.816404,2.164044 1.508542,1.141266 2.263673,2.073449 2.263673,2.794923 0,0.629669 -0.925792,1.139679 -2.77539,1.533203 -1.469186,0.314835 -2.819668,0.472668 -4.052735,0.472668 -0.590298,0 -1.234446,-0.08542 -1.929687,-0.255874 -0.275452,-0.06576 -0.418522,-0.0189 -0.431641,0.138709 l -0.550783,2.517543 c -0.05246,0.249449 0.04569,0.400668 0.294917,0.453128 0.944477,0.209763 1.855487,0.314456 2.734375,0.314456 1.285538,0 2.584713,-0.136441 3.896485,-0.412082 1.639714,-0.340913 2.740626,-0.846652 3.304686,-1.515628 0.57718,-0.669014 0.867186,-1.823169 0.867186,-3.462917 0,-2.243111 -0.938615,-4.25057 -2.814451,-6.021467 -1.495419,-1.403604 -2.656007,-2.105462 -3.482423,-2.105462 z m 27.251954,0.03893 c -0.970711,0 -1.856069,0.733947 -2.656252,2.203125 -0.721474,1.324913 -1.082029,2.551559 -1.082029,3.67971 0,0.721474 0.243175,1.312365 0.728515,1.771465 0.498474,0.459137 1.115017,0.689461 1.84961,0.689461 1.718423,0 2.787262,-0.663383 3.207031,-1.988296 0.406647,0.36737 0.609374,0.879269 0.609374,1.535168 0,0.288756 -0.05968,0.491301 -0.177751,0.609374 -0.616536,0.629669 -1.751464,1.109556 -3.4043,1.437505 -1.246182,0.249071 -2.504924,0.37304 -3.777343,0.37304 h -1.259766 c -0.734593,0 -1.534621,-0.550451 -2.400389,-1.652334 -0.183648,-0.236221 -0.326703,-0.229796 -0.431641,0.0189 l -1.240233,2.814426 c 1.206829,1.311798 1.810544,2.190727 1.810544,2.636749 0,0.485329 -0.315666,1.219276 -0.945312,2.203125 -0.485356,0.760819 -0.976135,1.409423 -1.474609,1.94725 -1.088773,1.180611 -1.980541,1.980624 -2.675781,2.400378 -0.839535,0.511597 -1.825002,0.767584 -2.953127,0.767584 -0.616531,0 -1.303623,-0.06425 -2.064449,-0.195401 -0.157418,-0.02646 -0.276775,-0.0412 -0.355465,-0.0412 -0.32795,0 -0.492185,0.08542 -0.492185,0.255874 0,0.170457 0.185423,0.368882 0.552733,0.591798 1.639718,0.983811 2.970958,1.474621 3.994141,1.474621 1.954541,0 3.750909,-1.100939 5.390626,-3.304706 1.377362,-1.849587 2.217823,-3.726841 2.519532,-5.628888 0.118072,-0.747742 0.517096,-1.121121 1.199217,-1.121121 h 1.671874 c 0.970712,0 2.112057,-0.196158 3.423829,-0.589833 1.574128,-0.472252 2.670577,-1.056718 3.287108,-1.751963 0.721478,-0.813278 1.082034,-2.366513 1.082034,-4.662085 0,-1.86274 -0.479906,-3.449952 -1.437502,-4.761751 -0.826417,-1.141228 -1.65851,-1.712882 -2.498045,-1.712882 z m -1.023439,3.011717 c 0.393532,0 0.788111,0.209008 1.181643,0.628913 0.393532,0.40664 0.589844,0.805682 0.589844,1.199207 0,0.249448 -0.243174,0.453921 -0.728519,0.611338 -0.393532,0.13115 -0.74126,0.195402 -1.042968,0.195402 -0.708355,0 -1.062501,-0.253985 -1.062501,-0.765619 0,-1.246186 0.354142,-1.869166 1.062501,-1.869166 z m 50.9726592,1.062501 c -0.091842,0.03401 -0.1739338,0.130771 -0.246085,0.294803 l -1.2207005,2.792992 c 1.8758325,1.954545 2.8144517,3.535332 2.8144517,4.742173 0,1.088769 -1.0303597,2.524574 -3.0898432,4.308586 -2.1381921,1.849626 -3.9814072,2.775421 -5.5292972,2.775421 -0.878888,0 -1.723809,-0.16441 -2.53711,-0.492208 -0.06558,-0.02646 -0.125254,-0.03893 -0.177714,-0.03893 -0.209877,0 -0.314456,0.104693 -0.314456,0.314456 0,0.13115 0.05968,0.248693 0.177751,0.353386 0.577179,0.537827 1.356015,0.998476 2.339845,1.378885 0.98383,0.393563 1.871138,0.589871 2.658202,0.589871 1.6397178,0 3.3571691,-1.043187 5.1542967,-3.128919 1.888951,-2.190652 2.833984,-4.67607 2.833984,-7.457046 0,-2.689134 -0.853289,-4.801134 -2.5585925,-6.335925 -0.1114961,-0.09827 -0.212863,-0.130393 -0.3047055,-0.09751 z M 45.7079,-82.201165 c 0.341065,0 0.6227,0.157985 0.845703,0.472668 0.236107,0.301606 0.355465,0.628233 0.355465,0.982413 0,0.695244 -1.352436,1.503647 -4.054689,2.421883 1.088773,-2.584176 2.040216,-3.876964 2.853521,-3.876964 z m -2.951172,9.62109 c 0.787064,0.05254 1.672418,0.289134 2.656248,0.709002 1.206833,0.524712 1.810549,1.109178 1.810549,1.751962 0,0.36737 -0.223937,0.668183 -0.669922,0.90429 -0.367294,0.196913 -0.753509,0.294803 -1.160156,0.294803 -0.708359,0 -1.324902,-0.452296 -1.84961,-1.357417 -0.419769,-0.708359 -0.682167,-1.476322 -0.787109,-2.302753 z m 21.978516,3.345714 -1.869143,2.714834 2.63672,1.791043 1.810548,-2.695332 z m -52.515625,22.460939 c -0.04448,0 -0.08723,0.0227 -0.12892,0.0684 l -0.966796,0.99216 c -0.100044,0.10016 -0.108774,0.18784 -0.02532,0.2657 l 1.058592,1.02542 c 0.07782,0.0722 0.152353,0.0722 0.224618,0 l 1.042968,-1.04103 c 0.07226,-0.0722 0.07226,-0.14438 0,-0.21694 l -1.066405,-1.02539 c -0.04724,-0.0446 -0.09419,-0.0684 -0.138671,-0.0684 z m 25.017577,0.35943 c -0.03889,-0.0265 -0.124422,-0.0227 -0.257801,0.0151 l -6.5625,1.83594 c -0.06115,0.0151 -0.137915,0.15458 -0.232403,0.41601 -0.08893,0.2555 -0.134778,0.43091 -0.134778,0.5254 0,0.0555 0.01512,0.0775 0.04297,0.0665 l 7.111329,-2.00002 0.07616,-0.64255 c 0.01096,-0.11679 -0.0042,-0.18898 -0.04297,-0.21695 z m -109.558595,0.0998 c -0.07226,0 -0.157757,0.0438 -0.257801,0.13266 l -1.535158,1.37696 v 5.70312 c 0,0.33902 -0.105184,0.61073 -0.316422,0.81641 -0.203867,0.20372 -0.473605,0.30501 -0.808592,0.30652 v -0.008 h -0.716799 c -0.817103,0 -1.226562,-0.19729 -1.226562,-0.5918 0,-0.0835 0.03477,-0.21694 0.101556,-0.4004 0.0556,-0.15572 0.06883,-0.28913 0.04101,-0.40036 -0.03889,-0.14438 -0.119887,-0.21695 -0.242192,-0.21695 -0.150086,0 -0.342728,0.11603 -0.576171,0.34961 -1.689792,1.70645 -4.142936,2.56055 -7.361329,2.56055 -0.956065,0 -1.63494,-0.0302 -2.035154,-0.0918 -1.48413,-0.22791 -2.224611,-0.90905 -2.224611,-2.04299 0,-0.0945 0.01323,-0.23017 0.04101,-0.40819 0.02797,-0.1833 0.04101,-0.32352 0.04101,-0.41797 0,-0.26684 -0.08776,-0.40041 -0.265625,-0.40041 -0.133417,0 -0.236334,0.0654 -0.308598,0.19351 -0.350174,0.61701 -0.525392,1.30912 -0.525392,2.07617 0,2.42355 1.511315,3.63478 4.535157,3.63478 2.278998,0 4.155893,-0.39428 5.628907,-1.1836 0.833779,-0.44466 1.59815,-1.08416 2.292967,-1.91796 0.06671,0.43359 0.24189,0.80818 0.525393,1.12501 0.40577,0.45578 0.960079,0.68357 1.666012,0.68357 h 0.609377 0.367181 c 0.322393,0 0.63343,-0.10507 0.933592,-0.31635 0.305726,-0.21127 0.527051,-0.46741 0.666017,-0.76758 0.322394,0.72261 0.92674,1.08397 1.810545,1.08397 h 0.658205 v -0.0113 c 0.691763,-0.0265 1.241491,-0.54202 1.642579,-1.56639 0.533616,1.31736 1.311212,1.97654 2.333983,1.97654 0.57253,0 1.010385,-0.26305 1.310547,-0.79101 0.244573,-0.428 0.365216,-0.95135 0.365216,-1.56836 0,-0.94495 -0.201638,-1.80997 -0.607423,-2.59374 -0.50027,-0.96718 -1.181397,-1.44922 -2.042967,-1.44922 -0.566971,0 -1.029022,0.20825 -1.384766,0.62499 -0.355729,0.41132 -0.533204,0.90209 -0.533204,1.47462 0,0.4447 -0.04808,0.75991 -0.142564,0.94337 -0.144529,0.27779 -0.41619,0.41601 -0.816405,0.41601 h -0.124989 -0.533204 c -0.739283,0 -1.089691,-0.56077 -1.050781,-1.68359 l 0.232441,-6.31253 c 0.01096,-0.22791 -0.04373,-0.34167 -0.165996,-0.34167 z m 132.271485,0 c -0.07227,0 -0.159723,0.0438 -0.259767,0.13266 l -1.533203,1.37696 v 5.70312 c 0,0.33902 -0.105184,0.61073 -0.316422,0.81641 -0.205682,0.20561 -0.47929,0.30841 -0.818362,0.30841 h -0.349607 c -0.617,0 -1.094524,-0.51689 -1.433593,-1.55078 l -1.367188,-4.13476 c -0.03889,-0.12246 -0.08701,-0.18369 -0.142564,-0.18369 -0.04448,0 -0.108018,0.0461 -0.191395,0.1406 l -1.15039,1.26758 1.292969,3.48631 c -0.800428,0.74487 -1.851647,1.11719 -3.152345,1.11719 -1.045006,0 -1.568361,-0.30879 -1.568361,-0.92576 0,-0.0778 0.01512,-0.19389 0.04297,-0.3496 0.02797,-0.16139 0.04101,-0.28158 0.04101,-0.35944 0,-0.18897 -0.09196,-0.28308 -0.275377,-0.28308 -0.166753,0 -0.313549,0.13795 -0.441403,0.41601 -0.283503,0.62256 -0.425783,1.33659 -0.425783,2.14258 0,0.59474 0.201335,1.05456 0.601561,1.37695 0.366879,0.29481 0.853107,0.44142 1.458985,0.44142 1.128381,0 2.070213,-0.35037 2.826172,-1.05079 0.400214,-0.37228 0.805466,-0.94189 1.2168,-1.70899 0.316837,0.86158 0.570773,1.43978 0.759764,1.73439 0.416889,0.64479 0.960231,0.96677 1.632813,0.96677 h 0.634764 0.367181 c 0.322394,0 0.633434,-0.10508 0.933592,-0.31635 0.305726,-0.21128 0.527052,-0.46742 0.666017,-0.76759 0.322394,0.72261 0.92674,1.08397 1.810545,1.08397 h 0.265625 v 0.008 h 0.716799 c 0.472475,0 1.020023,-0.11376 1.642579,-0.34167 0.628112,-0.23357 1.125324,-0.50286 1.492188,-0.80859 1.239553,0.80043 2.213987,1.20117 2.919919,1.20117 0.611441,0 1.104442,-0.31332 1.482422,-0.9414 0.289058,-0.47804 0.433595,-0.91816 0.433595,-1.31838 0,-1.06167 -0.821473,-2.27939 -2.466796,-3.65234 -0.978304,-0.8171 -2.117272,-1.5947 -3.41797,-2.33398 -0.138974,-0.0778 -0.250621,-0.11716 -0.333997,-0.11716 -0.133418,0 -0.242797,0.10053 -0.326174,0.30085 l -0.882814,2.1758 0.750002,0.29291 c -0.333506,0.17235 -0.653265,0.42656 -0.958983,0.76566 -0.361323,0.40021 -0.541017,0.75061 -0.541017,1.05078 0,0.50026 0.271672,0.89227 0.816404,1.17578 h -0.933592 -0.533205 c -0.739283,0 -1.08969,-0.56077 -1.05078,-1.68359 l 0.232403,-6.31253 c 0.01096,-0.22791 -0.04373,-0.34167 -0.165997,-0.34167 z m -96.076174,0.0763 c -0.06115,0 -0.18599,0.0658 -0.375004,0.19918 l -1.517579,1.06643 c 0.138973,2.09556 0.207043,4.08862 0.207043,5.97849 0,2.37351 0.737926,3.56054 2.210936,3.56054 h 0.816405 0.150387 c 0.933834,0 1.652379,-0.43362 2.158205,-1.30076 0.400214,-0.68371 0.601561,-1.45678 0.601561,-2.31836 0,-0.4447 -0.081,-0.9222 -0.242192,-1.43357 -0.227906,-0.72261 -0.56959,-1.27019 -1.02539,-1.64259 -0.08893,-0.0722 -0.16766,-0.0571 -0.234368,0.0431 l -1.191406,1.83398 c 0.98942,0.91158 1.484376,1.50946 1.484376,1.79297 0,0.32239 -0.549801,0.48242 -1.650392,0.48242 h -0.285165 c -0.667026,0 -1.000002,-0.39655 -1.000002,-1.19142 l 0.0079,-6.65428 c 0,-0.27779 -0.03742,-0.41605 -0.115238,-0.41605 z m 40.0449227,0 c -0.06115,0 -0.185991,0.0658 -0.375005,0.19918 l -1.517575,1.06643 c 0.138974,2.09556 0.208971,4.08862 0.208971,5.97849 0,2.37351 0.735976,3.56054 2.208986,3.56054 h 0.818358 0.250016 c 0.894924,0 1.499569,-0.53654 1.816407,-1.60936 0.350173,1.07282 0.998408,1.60936 1.943358,1.60936 h 0.625001 0.7011713 c 1.395193,0 2.459633,-0.38781 3.19336,-1.16598 0.705933,-0.76154 1.058593,-1.84566 1.058593,-3.25198 0,-1.28402 -0.282633,-2.28488 -0.849608,-3.00193 -0.494709,-0.62812 -1.094849,-0.94337 -1.800782,-0.94337 -0.689257,0 -1.249727,0.4927 -1.677736,1.47655 -0.333505,0.76709 -0.499997,1.49435 -0.499997,2.18362 0,0.91714 0.681127,1.37696 2.042967,1.37696 0.339061,0 0.919525,-0.0438 1.742188,-0.13266 0,0.31672 -0.343937,0.56009 -1.033202,0.73239 -0.49471,0.12246 -0.963523,0.18369 -1.408203,0.18369 H 9.8973517 9.2723507 c -0.889365,0 -1.399798,-0.58273 -1.533204,-1.75 -0.04449,-0.37228 -0.167092,-0.55861 -0.367181,-0.55861 -0.200088,0 -0.340157,0.18633 -0.41797,0.55861 -0.244573,1.16727 -0.811809,1.75 -1.701173,1.75 h -0.224617 c -0.667023,0 -0.999999,-0.39655 -0.999999,-1.19142 l 0.0079,-6.65428 c 0,-0.27779 -0.03938,-0.41605 -0.117203,-0.41605 z m -46.6816407,0.1251 c -0.02797,0.004 -0.06489,0.0113 -0.109379,0.0227 l -6.812501,2.2363 c -0.08338,0.0265 -0.18856,0.34318 -0.316384,0.94923 -0.116749,0.55586 -0.175786,0.92822 -0.175786,1.11719 0,0.0612 0.0064,0.10281 0.01776,0.1251 1.300694,1.90103 1.95117,2.96546 1.95117,3.19337 0,0.33335 -0.77534,0.49999 -2.326171,0.49999 h -3.851561 c -1.261788,0 -2.199111,-0.10961 -2.810548,-0.33222 -0.994979,-0.36132 -1.492188,-1.05339 -1.492188,-2.07617 0,-0.26117 0.02419,-0.51969 0.07423,-0.77537 0.01663,-0.0835 0.02532,-0.15118 0.02532,-0.20107 0,-0.27251 -0.09422,-0.40819 -0.2832,-0.40819 -0.166753,0 -0.298091,0.11376 -0.392579,0.34167 -0.344618,0.81709 -0.515622,1.64281 -0.515622,2.47657 0,2.34013 1.725883,3.50975 5.177733,3.50975 h 4.267578 c 0.817104,0 1.454355,-0.13569 1.910155,-0.40819 0.516944,-0.31144 0.880573,-0.83913 1.091799,-1.58396 0.466915,0.73371 0.92671,1.23318 1.37695,1.49998 0.550296,0.32806 1.325639,0.49217 2.326175,0.49217 h 1.183593 0.158211 c 0.933834,0 1.654329,-0.43363 2.160155,-1.30077 0.400214,-0.68371 0.59961,-1.45678 0.59961,-2.31836 0,-0.4447 -0.081,-0.9222 -0.242192,-1.43357 -0.227905,-0.72261 -0.56959,-1.27019 -1.025389,-1.64259 -0.08893,-0.0722 -0.16766,-0.0571 -0.234369,0.0431 l -1.191405,1.83398 c 0.98942,0.91158 1.484375,1.50947 1.484375,1.79297 0,0.32239 -0.5498,0.48242 -1.650391,0.48242 h -0.05858 -1.800782 c -0.772634,0 -1.46894,-0.38559 -2.085936,-1.1582 -0.150085,-0.18898 -0.846686,-1.28183 -2.091799,-3.27734 l 5.861329,-1.92578 v -1.55078 c 0,-0.17235 -0.0658,-0.24681 -0.199219,-0.22451 z m 1.761721,0.55857 c -0.04448,0 -0.08723,0.0227 -0.12892,0.0665 l -0.966795,0.98438 c -0.100044,0.10016 -0.108775,0.18784 -0.02532,0.2657 l 1.058593,1.02539 c 0.07782,0.0722 0.154318,0.0722 0.226545,0 l 1.033202,-1.03321 c 0.07782,-0.0779 0.08009,-0.15232 0.0079,-0.2245 l -1.066405,-1.0176 c -0.04725,-0.0446 -0.09419,-0.0665 -0.138671,-0.0665 z m 78.072266,0.73244 c -0.0556,0.004 -0.09271,0.0113 -0.10938,0.0189 l -6.919922,1.79297 c -0.08893,0.0227 -0.191849,0.28535 -0.308598,0.79101 -0.1056,0.46137 -0.158211,0.77885 -0.158211,0.95116 0,0.0665 0.0064,0.11074 0.01776,0.13266 1.417429,1.5953 2.125002,2.50647 2.125002,2.73438 0,0.28913 -0.775344,0.43358 -2.326171,0.43358 h -3.76758 c -1.261788,0 -2.199107,-0.1096 -2.810548,-0.33222 -0.994975,-0.36132 -1.492187,-1.05339 -1.492187,-2.07617 0,-0.26116 0.02419,-0.51968 0.07423,-0.77537 0.01663,-0.0835 0.02532,-0.15118 0.02532,-0.20107 0,-0.2725 -0.09422,-0.40819 -0.2832,-0.40819 -0.166752,0 -0.298091,0.11377 -0.392575,0.34167 -0.344618,0.8171 -0.515626,1.64281 -0.515626,2.47658 0,2.34013 1.725887,3.50974 5.177733,3.50974 h 4.267578 c 0.9116,0 1.59919,-0.21014 2.06055,-0.63281 0.30017,-0.2725 0.580543,-0.74762 0.841795,-1.42575 0.789313,1.37295 1.899882,2.05856 3.333985,2.05856 h 1.585936 0.250015 c 0.894924,0 1.49957,-0.53654 1.816407,-1.60936 0.350174,1.07282 0.998408,1.60936 1.943362,1.60936 h 0.624997 0.150388 c 0.933834,0 1.654329,-0.43362 2.160155,-1.30076 0.400214,-0.68372 0.599611,-1.45678 0.599611,-2.31836 0,-0.4447 -0.081,-0.92221 -0.242193,-1.43358 -0.227905,-0.72261 -0.56959,-1.27018 -1.025389,-1.64258 -0.08893,-0.0722 -0.165733,-0.0571 -0.232441,0.0431 l -1.19336,1.83397 c 0.98942,0.91159 1.484376,1.50947 1.484376,1.79297 0,0.3224 -0.5498,0.48242 -1.650391,0.48242 h -0.0508 -0.624998 c -0.889368,0 -1.401751,-0.58273 -1.535157,-1.74999 -0.04449,-0.37229 -0.165128,-0.55862 -0.365254,-0.55862 -0.200088,0 -0.340157,0.18633 -0.41797,0.55862 -0.244573,1.16726 -0.811805,1.74999 -1.701169,1.74999 h -1.800783 c -0.694817,0 -1.338829,-0.30009 -1.933595,-0.90039 l -2.251952,-2.75978 5.76172,-1.48437 v -1.47462 c 0,-0.16668 -0.06357,-0.24302 -0.191395,-0.22639 z m -30.3242203,0.93358 c -0.04449,0 -0.09029,0.0227 -0.134778,0.0684 l -0.966796,0.98241 c -0.100044,0.10016 -0.108774,0.192 -0.02532,0.27553 l 1.05078,1.01756 c 0.07782,0.0722 0.152353,0.0722 0.224617,0 l 1.042969,-1.03321 c 0.07782,-0.0779 0.08009,-0.15004 0.0079,-0.21694 l -1.066405,-1.02539 c -0.04449,-0.0446 -0.08833,-0.0684 -0.132813,-0.0684 z m 32.2324243,0 c -0.04449,0 -0.08837,0.0227 -0.132813,0.0684 l -0.966799,0.98241 c -0.100044,0.10016 -0.108775,0.192 -0.02532,0.27553 l 1.050784,1.01756 c 0.07782,0.0722 0.152353,0.0722 0.224617,0 l 1.042972,-1.03321 c 0.07782,-0.0779 0.08009,-0.15004 0.0079,-0.21694 l -1.066374,-1.02535 c -0.04445,-0.0446 -0.09029,-0.0684 -0.134778,-0.0684 z m -90.990238,0.46877 c -1.92881,0.31673 -2.892578,0.83823 -2.892578,1.56639 0,0.19465 0.219099,0.43333 0.658205,0.71679 0.44468,0.27779 0.667967,0.42894 0.667967,0.4512 0,0.14438 -0.256176,0.21694 -0.767577,0.21694 -0.277908,0 -0.63284,-0.0227 -1.066408,-0.0665 -0.07227,0 -0.172914,0.09 -0.300775,0.27326 -0.127862,0.18331 -0.191395,0.31484 -0.191395,0.39258 0,0.0835 0.05484,0.12511 0.166034,0.12511 h 1.367188 c 0.428005,0 0.831004,-0.0854 1.208984,-0.25777 0.478034,-0.21656 0.716795,-0.51685 0.716795,-0.90039 0,-0.24454 -0.22133,-0.50302 -0.666014,-0.77537 l -0.658204,-0.40819 c 0,-0.14438 0.497212,-0.30426 1.492187,-0.47656 0.08893,-0.0151 0.174425,-0.11981 0.257802,-0.30841 0.07226,-0.16668 0.107414,-0.30501 0.107414,-0.41602 0,-0.10015 -0.03288,-0.144 -0.09959,-0.13266 z m 80.009769,0 c -1.928814,0.31673 -2.892578,0.83823 -2.892578,1.56639 0,0.19465 0.219061,0.43333 0.658201,0.71679 0.444684,0.27779 0.667971,0.42894 0.667971,0.4512 0,0.14438 -0.256215,0.21694 -0.767581,0.21694 -0.277946,0 -0.634794,-0.0227 -1.068359,-0.0665 -0.07226,0 -0.170986,0.09 -0.298809,0.27326 -0.127862,0.18331 -0.191396,0.31484 -0.191396,0.39258 0,0.0835 0.05484,0.12511 0.166035,0.12511 h 1.367187 c 0.428009,0 0.831005,-0.0854 1.208984,-0.25777 0.478035,-0.21656 0.716799,-0.51685 0.716799,-0.90039 0,-0.24454 -0.221329,-0.50302 -0.666017,-0.77537 l -0.660155,-0.40819 c 0,-0.14438 0.499162,-0.30426 1.494142,-0.47656 0.08893,-0.0151 0.174425,-0.11981 0.257801,-0.30841 0.07227,-0.16668 0.107415,-0.30501 0.107415,-0.41602 0,-0.10015 -0.03288,-0.144 -0.09959,-0.13266 z m -113.25977,0.22867 c -0.04169,0 -0.0833,0.0227 -0.124988,0.0624 l -0.90039,0.90822 c -0.09449,0.0945 -0.103219,0.18179 -0.02532,0.25965 l 0.992187,0.95898 c 0.07226,0.0669 0.142299,0.0669 0.20897,0 l 0.933592,-0.94337 0.933597,0.94337 c 0.06671,0.0722 0.134778,0.0722 0.207042,0 l 0.976562,-0.97655 c 0.07227,-0.0722 0.07449,-0.13796 0.0079,-0.19918 l -0.999999,-0.9512 c -0.08338,-0.0835 -0.166639,-0.0835 -0.250015,0 l -0.917968,0.90822 -0.916018,-0.90822 c -0.04169,-0.0416 -0.0833,-0.0624 -0.124989,-0.0624 z m 68.761721,0.0703 c -0.761518,0 -1.492986,0.36132 -2.193358,1.08396 -0.555856,0.57256 -1.037587,1.30175 -1.44336,2.18555 -0.344618,0.75043 -0.515626,1.30893 -0.515626,1.67581 0,0.66701 0.190677,1.12259 0.57422,1.36717 0.283464,0.17801 0.861683,0.32466 1.734372,0.44141 1.02277,0.13342 1.732297,0.22526 2.126955,0.27553 0.678142,0.0945 1.017578,0.24793 1.017578,0.45894 0,0.41137 -0.503671,0.72688 -1.509767,0.94923 -0.850454,0.18898 -1.851337,0.28498 -3.001954,0.28498 -1.623091,0 -2.864987,-0.15761 -3.726561,-0.46874 -1.183967,-0.42803 -1.775391,-1.18367 -1.775391,-2.2676 0,-0.63368 0.09645,-1.23606 0.291023,-1.80858 0.04449,-0.12775 0.06641,-0.24189 0.06641,-0.34167 0,-0.20561 -0.07226,-0.30841 -0.216794,-0.30841 -0.377979,0 -0.721924,0.58269 -1.033202,1.75 -0.255685,0.95607 -0.382813,1.69848 -0.382813,2.22655 0,1.27291 0.538832,2.22119 1.617188,2.84376 0.867133,0.50026 1.986418,0.75001 3.359376,0.75001 3.301769,0 5.47002,-0.76214 6.503906,-2.28518 0.350173,-0.51693 0.525392,-1.35583 0.525392,-2.51758 0,-0.64479 -0.264907,-1.10487 -0.792971,-1.38282 -0.283465,-0.15004 -0.752297,-0.2725 -1.408203,-0.36699 -0.500266,-0.0612 -1.001685,-0.12019 -1.501954,-0.17575 -0.817104,-0.13341 -1.224609,-0.30841 -1.224609,-0.52539 0,-0.30576 0.18618,-0.64093 0.558595,-1.00781 0.533617,-0.52804 1.267336,-0.79295 2.201171,-0.79295 0.333505,0 0.90525,0.10054 1.716797,0.30086 0.506941,0.12926 0.726543,0.20825 0.761719,0.25587 0.08708,-0.0472 0.148422,-0.12624 0.148422,-0.27326 0,-0.42248 -0.227792,-0.89352 -0.683592,-1.41604 -0.528061,-0.60586 -1.125948,-0.91015 -1.79297,-0.91015 z m 2.328124,2.59959 c -0.0412,0.0227 -0.07601,0.0529 -0.136705,0.0529 0.122268,0 0.187805,-0.0113 0.193361,-0.034 0,-0.003 -0.05401,-0.0151 -0.05666,-0.0189 z m 12.0371117,-2.2656 c -0.7448467,0 -1.3756347,0.72726 -1.8925796,2.18359 -0.3779792,1.06167 -0.5664075,1.86315 -0.5664075,2.40234 0,1.045 1.0076447,1.56639 3.0253911,1.56639 0.344617,0 0.71892604,-0.0151 1.11914104,-0.0488 -0.339062,1.2562 -1.66391104,2.45004 -3.97070414,3.58398 -0.1723087,0.0835 -0.5404498,0.22563 -1.1074205,0.42576 -0.3001701,0.10583 -0.4511735,0.22828 -0.4511735,0.36699 0,0.26117 0.1948724,0.4255 0.5839861,0.49221 1.389634,0.23357 2.4147062,0.34961 3.076173,0.34961 0.18342,0 0.483499,-0.24341 0.900389,-0.73244 0.52250104,-0.61141 0.95164304,-1.35806 1.28515604,-2.23631 0.439125,-1.15064 0.658205,-2.4122 0.658205,-3.78516 0,-1.045 -0.186179,-2.00005 -0.558595,-2.86718 -0.48915,-1.13394 -1.18996204,-1.70117 -2.10156104,-1.70117 z m 13.9570283,0.95116 c 0.600325,0 1.121424,0.33297 1.560548,0.99999 -0.377979,0.10015 -0.780975,0.15042 -1.208984,0.15042 -0.733727,0 -1.101562,-0.14891 -1.101562,-0.44338 0,-0.2056 0.07226,-0.37455 0.216794,-0.50781 0.150085,-0.13342 0.327534,-0.19918 0.5332,-0.19918 z m -20.3691405,0.21694 c -0.083376,0 -0.1624063,0.0612 -0.2402268,0.18369 l -1.208984,1.83398 c 1.5063648,1.08948 2.2578142,1.91739 2.2578142,2.48436 0,0.6726 -0.8127571,1.47632 -2.4414089,2.41016 -0.628112,0.36132 -1.392483,0.71849 -2.292967,1.07422 -0.45024,0.17802 -0.67578,0.36397 -0.67578,0.55861 0,0.23358 0.525608,0.40865 1.576169,0.5254 0.733727,0.0835 1.364519,0.11641 1.8925797,0.0998 0.255685,-0.004 0.4354016,-0.034 0.5410167,-0.09 0.1056,-0.0556 0.2543622,-0.18708 0.4433575,-0.39258 1.2506721,-1.35072 1.8750009,-2.99335 1.8750009,-4.92775 0,-0.78372 -0.1664882,-1.5394 -0.5000012,-2.26756 -0.2667969,-0.57808 -0.5668763,-1.01401 -0.9003893,-1.30859 -0.1389733,-0.12245 -0.2483528,-0.18368 -0.3261733,-0.18368 z m 6.0703142,1.15042 c 0.233462,0 0.487397,0.0854 0.759765,0.25776 0.377979,0.23887 0.636427,0.58072 0.77539204,1.02539 -0.20008804,0.0227 -0.42339404,0.034 -0.66797104,0.034 -1.145057,0 -1.7167972,-0.17083 -1.7167972,-0.51564 0,-0.53363 0.2826331,-0.80077 0.8496112,-0.80077 z m 66.5527343,0.21694 c 0.283502,0 0.607748,0.12699 0.974612,0.38279 0.394654,0.26684 0.593748,0.53624 0.593748,0.80859 0,0.18331 -0.0765,0.33903 -0.226544,0.46681 -0.150085,0.12775 -0.318841,0.19125 -0.507814,0.19125 -0.138973,0 -0.467429,-0.15761 -0.984374,-0.4746 -0.550296,-0.33902 -0.826171,-0.59977 -0.826171,-0.78319 0,-0.17235 0.126803,-0.31899 0.376932,-0.44141 0.205682,-0.10016 0.405064,-0.15043 0.599611,-0.15043 z m -131.687502,0.0488 c 0.428008,0 0.817784,0.3962 1.167968,1.18552 0.261241,0.58923 0.390626,1.07996 0.390626,1.47462 0,0.43355 -0.146797,0.65038 -0.441404,0.65038 -0.589206,0 -1.058018,-0.44462 -1.408203,-1.33398 -0.177864,-0.45022 -0.26759,-0.85323 -0.26759,-1.209 0,-0.51137 0.186179,-0.76754 0.558591,-0.76754 z m 134.289064,1.10936 c 1.295139,0.76706 1.943362,1.35398 1.943362,1.75975 0,0.20561 -0.126841,0.30841 -0.37697,0.30841 -0.439125,0 -1.14895,-0.26948 -2.132811,-0.80859 0.133418,-0.10545 0.260523,-0.30047 0.38281,-0.58398 0.116712,-0.26683 0.178053,-0.49236 0.183609,-0.67578 z m -100.203126,5.08592 c -0.04445,0 -0.09029,0.0227 -0.134778,0.0665 l -0.9668,0.98438 c -0.100044,0.10016 -0.108775,0.192 -0.02532,0.27553 l 1.050785,1.01756 c 0.07782,0.0722 0.152352,0.0722 0.224617,0 l 1.042972,-1.03517 c 0.07782,-0.0779 0.08009,-0.15005 0.0079,-0.21695 l -1.066409,-1.02538 c -0.04445,-0.0446 -0.08833,-0.0665 -0.132812,-0.0665 z m 76.615234,0.0801 c -0.04169,0 -0.0833,0.0227 -0.124989,0.0624 l -0.900393,0.91601 c -0.09449,0.0945 -0.100951,0.18179 -0.01776,0.25965 l 0.984378,0.94923 c 0.07226,0.0665 0.142261,0.0665 0.20897,0 l 0.933596,-0.93362 0.933592,0.93362 c 0.03889,0.0389 0.07604,0.0586 0.10938,0.0586 0.03326,0 0.06852,-0.0189 0.107414,-0.0586 l 0.966796,-0.9668 c 0.07226,-0.0722 0.07646,-0.13795 0.0098,-0.19918 l -1.001952,-0.95898 c -0.08338,-0.0835 -0.16664,-0.0835 -0.250016,0 l -0.916014,0.916 -0.917972,-0.916 c -0.04169,-0.0416 -0.0833,-0.0624 -0.124989,-0.0624 z" />
  </g>
</svg>
