<svg width="178" height="125" viewBox="0 0 178 125" fill="none" xmlns="http://www.w3.org/2000/svg">
<g clip-path="url(#clip0_31_893)">
<path fill-rule="evenodd" clip-rule="evenodd" d="M8.77601 115.984C8.86489 118.321 4.37817 120.681 1.96797 119.129C-0.699971 117.411 2.50104 112.536 2.82984 111.164C1.53904 112.51 -2.43815 120.971 2.15888 122.203C7.28751 123.577 10.357 115.559 9.23039 113.652C8.67186 112.707 8.37869 113.428 7.47757 112.501C7.51279 110.972 9.70216 109.498 11.564 109.472C11.8546 108.692 12.1881 108.222 12.3546 107.211C9.90156 107.566 6.40081 111.814 6.37217 114.043C6.35308 115.522 7.82589 115.485 8.77601 115.984Z" fill="#1C398E"/>
<path fill-rule="evenodd" clip-rule="evenodd" d="M87.694 0.0545244C85.7072 3.93118 82.8548 3.66685 80.6251 0.667284C80.5899 0.619742 80.4961 0.47437 80.4554 0.428942C80.1862 0.129112 80.3739 0.324561 80.0562 0.0860076C80.5979 6.48279 86.115 4.4721 87.6442 4.46745C88.7044 4.46428 91.0204 5.3718 93.0556 4.24474C94.3141 3.54789 94.9249 2.00289 94.8162 0.569665L94.4115 0.000221252C94.3931 0.0407902 94.3118 0.232859 94.2893 0.288218C93.7851 1.52472 93.0238 2.6203 91.3068 2.70904C89.0169 2.82716 88.498 1.4738 87.6938 0.0547357L87.694 0.0545244Z" fill="#1C398E"/>
<path fill-rule="evenodd" clip-rule="evenodd" d="M175.186 113.259C178.793 115.717 175.162 116.592 174.175 118.067C176.878 117.697 178.002 115.678 178 113.268C177.999 111.874 177.142 111.009 176.317 110.625C175.927 111.368 175.427 112.409 175.186 113.259V113.259Z" fill="#1C398E"/>
<path fill-rule="evenodd" clip-rule="evenodd" d="M173.598 121.724C174.945 121 175.568 118.845 173.542 118.401L172.131 120.72L173.598 121.724H173.598Z" fill="#1C398E"/>
<path fill-rule="evenodd" clip-rule="evenodd" d="M83.738 8.4001L84.0339 47.9683C81.981 46.825 78.2479 41.6038 76.7963 38.6429C72.8185 30.5298 72.2818 21.0065 76.0231 12.6286C76.5295 11.4945 77.2692 10.3702 77.6393 9.30043C75.0077 10.5619 71.4028 16.205 69.9966 19.1031C64.4322 30.5708 67.0773 45.378 78.8253 52.5543C79.5892 53.0208 80.9477 53.5776 81.5989 54.0815C79.5778 55.0142 74.6237 56.3709 72.1159 56.5224C79.4899 57.1462 77.1563 57.068 84.3649 56.6327C84.9756 57.2193 86.1557 59.6526 86.7027 60.6381C86.8659 60.9316 86.959 61.0909 87.1234 61.3713L87.6401 62.0398L90.4635 56.5501C97.8433 57.1282 95.9116 57.0557 103.352 56.5928C101.167 56.5178 95.6853 54.876 93.8411 54.1063C94.75 53.2621 99.8267 51.7009 103.813 45.8697C109.406 37.687 109.434 26.7939 104.971 18.0654C103.302 14.8001 100.004 10.4714 97.5764 9.10435C100.359 13.1532 101.951 19.5844 101.946 24.7684C101.938 31.7817 99.325 39.0898 95.1422 44.1455C94.1183 45.3831 92.0426 47.8872 90.7245 48.5942L91.1084 8.83452C90.9954 8.05906 88.0826 6.09781 87.4471 5.71832C86.1739 6.3184 84.9783 7.7586 83.7376 8.39989L83.738 8.4001Z" fill="#1C398E"/>
<path fill-rule="evenodd" clip-rule="evenodd" d="M114.112 32.8315C114.112 41.371 112.44 43.328 111.096 49.8362C113.271 48.9589 116.781 44.5047 117.921 42.4526C121.484 36.0438 121.926 28.3959 118.977 21.5865C116.903 16.797 113.289 12.626 108.625 10.0072C106.969 9.07731 102.877 7.1 100.839 7.00069L104.637 10.3354C110.628 16.2269 114.112 23.6815 114.112 32.8317L114.112 32.8315Z" fill="#1C398E"/>
<path fill-rule="evenodd" clip-rule="evenodd" d="M64.758 49.8922C64.0205 46.0259 62.6111 43.7453 62.0038 37.8223C61.091 28.9233 62.5434 21.2492 67.7077 14.3234C68.7745 12.8927 69.9467 11.548 71.1041 10.4066C71.6128 9.90496 74.4542 7.25128 75.0034 7.01104C73.5923 7.01717 69.6762 8.68324 68.461 9.31206C54.9579 16.2979 50.4992 33.0265 59.9455 45.4435C60.8182 46.5904 63.459 49.3181 64.7578 49.8922H64.758Z" fill="#1C398E"/>
<path fill-rule="evenodd" clip-rule="evenodd" d="M106.721 76.7143L106.335 76.3148C103.74 78.8319 95.5284 79.3845 91.7025 78.5023C89.6983 78.0402 90.3226 77.9597 89.5676 76.6243C89.0579 77.2698 88.8839 79.7688 89.3606 80.453C90.9108 82.6775 99.5408 81.3136 101.485 80.8065C103.598 80.2557 104.827 79.3933 105.689 77.8978C108.1 77.6918 107.041 79.2332 109.497 76.8703C110.472 75.9321 111.427 76.5537 113.2 74.6083C113.7 74.0594 114.11 73.4847 114.215 72.6052C113.889 72.8882 113.858 73.0965 113.629 73.307C113.064 73.827 113.161 73.386 112.604 73.8289C112.245 74.1141 112.292 74.3058 111.877 74.4672C111.447 74.6343 110.992 74.5832 110.653 74.7609C109.433 75.399 109.15 76.4367 106.72 76.7143H106.721Z" fill="#1C398E"/>
<path fill-rule="evenodd" clip-rule="evenodd" d="M93.1666 109.808C94.3477 109.179 94.6438 106.629 96.6154 107.775C96.3629 108.873 93.9735 110.147 92.4212 110.407C91.275 107.33 89.1673 111.661 89.8845 112.374C90.7017 112.813 90.6857 112.4 91.4615 112.693C92.4057 113.483 91.0909 118.914 86.4589 119.524C84.4901 119.783 82.8111 119.048 82.403 117.532C81.9157 115.721 83.1876 113.95 83.3809 112.521C82.3849 113.704 81.2982 116.756 81.3733 118.839C81.5526 123.815 90.5697 125.127 92.6316 112.112C95.9699 111.019 98.9819 106.528 97.1597 105.726C95.6237 105.576 95.3549 106.598 94.5514 107.143C94.8969 105.367 95.2113 103.789 95.3706 101.882L94.8927 102.643C94.2845 104.163 94.3547 104.071 94.1589 105.741C93.7877 108.907 93.3664 108.664 93.1664 109.808L93.1666 109.808Z" fill="#1C398E"/>
<path fill-rule="evenodd" clip-rule="evenodd" d="M24.1415 113.937C24.2826 113.573 25.0494 112.8 25.298 112.606C26.1124 111.97 26.6342 112.183 27.312 112.647C26.9125 113.507 25.5526 114.17 24.1415 113.937ZM19.6507 118.056C20.6505 117.014 20.7774 116.563 21.5173 115.399C24.0178 115.925 25.2344 117.155 29.055 113.305C30.1102 113.323 30.2811 113.626 30.8573 112.77C33.1122 109.422 31.3891 106.627 30.0143 107.094C29.4014 107.514 28.376 109.2 28.8527 110.197C29.5832 110.626 29.7232 110.36 30.5667 110.406C31.3131 112.333 29.6723 111.564 29.2434 111.701C28.0761 112.509 28.8463 112.798 27.6575 113.386C27.8347 112.764 28.5913 111.361 27.5826 110.9C25.9942 110.635 24.2889 113.079 23.7028 113.869L22.3163 113.585C21.6486 114.104 21.1766 115.229 20.1507 115.326C16.7367 115.649 18.6716 109.51 18.8597 106.317L18.4319 106.925C17.8186 108.274 17.4979 111.371 17.3023 112.879C16.9894 115.29 16.2902 118.384 19.6512 118.056L19.6507 118.056Z" fill="#1C398E"/>
<path fill-rule="evenodd" clip-rule="evenodd" d="M63.5246 79.6731C63.2891 81.9308 59.1834 84.1917 56.6873 82.6701C54.0331 81.0524 57.0292 76.5641 57.5615 74.6802C56.011 76.2146 52.5491 84.3761 56.7331 85.701C61.0117 87.0558 64.6294 81.3533 64.0615 77.2111C63.4164 76.5869 62.8473 76.6505 62.1895 76.0257C62.2461 74.4634 64.4172 73.0314 66.2888 73.0105L67.1509 70.7917C64.5978 71.034 60.9517 75.5486 61.0898 77.7497C61.1829 79.2326 62.612 78.8034 63.5246 79.6731Z" fill="#1C398E"/>
<path fill-rule="evenodd" clip-rule="evenodd" d="M118.234 112.501C118.602 110.812 119.93 110.025 119.559 104.526C118.6 105.911 118.445 107.647 118.424 109.627C118.4 111.942 116.995 112.346 117.197 114.612C117.902 115.799 118.452 115.259 119.551 116.023C119.6 118.385 115.225 120.576 112.768 119.152C110.092 117.6 113.017 113.061 113.607 111.17C112.734 111.766 111.212 115.846 110.926 117.276C109.325 125.285 119.768 123.328 120.191 114.803C120.295 112.723 119.259 113.487 118.234 112.501H118.234Z" fill="#1C398E"/>
<path fill-rule="evenodd" clip-rule="evenodd" d="M82.777 69.0052C83.8073 68.3892 84.2196 67.693 86.0681 68.5386C85.5698 69.0462 83.3421 69.7238 82.872 70.7205C82.3217 71.8877 83.1395 71.2022 81.4533 73.3213C81.0655 73.8086 81.0644 73.8329 80.6612 74.0928C78.9029 72.253 78.6038 75.2264 76.9672 75.7421C76.2583 72.6063 73.5852 75.7453 73.9755 77.9525C74.557 78.3529 74.9244 78.4465 75.9216 78.3316C75.4373 80.1787 73.7291 80.3943 72.6228 81.591C76.4577 81.5492 76.0493 78.4121 77.2453 76.9966C77.6577 76.5085 78.5178 74.9532 79.5503 75.4341C80.6158 76.5064 79.5503 77.2261 79.931 78.1294C80.9656 77.097 80.6765 74.6605 82.2023 74.0638C82.8421 73.8136 83.3976 74.0995 84.1655 74.0537C84.5964 73.6444 84.8414 73.4396 84.933 72.5697C84.5228 71.5961 84.0792 71.5158 83.6435 70.842C85.0826 69.6082 87.7828 69.6334 88.0184 67.7704C87.4321 67.3459 83.7093 65.8353 82.7767 69.0047L82.777 69.0052Z" fill="#1C398E"/>
<path fill-rule="evenodd" clip-rule="evenodd" d="M129.064 109.64C127.074 112.202 128.815 114.33 126.525 114.838C126.804 114.234 126.94 114.224 126.962 113.46C125.923 112.14 123.848 112.905 123.367 114.192C124.423 114.269 124.547 114.104 124.666 115.209C119.72 116.494 122.319 109.195 122.294 106.205C121.277 107.46 121.09 110.237 120.833 112.165C120.559 114.224 120.036 117.553 122.169 118.05C123.381 118.332 124.366 117.48 124.921 116.999C126.561 115.579 125.884 116.948 127.352 115.582C128.757 114.275 129.289 112.16 129.064 109.64Z" fill="#1C398E"/>
<path fill-rule="evenodd" clip-rule="evenodd" d="M104.215 115.534L106.335 113.248C107.681 113.234 108.386 113.919 109.051 112.525C109.312 111.978 109.28 111.416 109.012 110.982C108.661 110.415 108.376 110.169 107.805 109.943C107.323 111.311 106.946 110.947 106.199 111.982C105.585 112.831 105.347 113.312 104.6 114.024C102.47 113.847 103.269 114.266 101.952 115.053C100.876 115.696 99.5529 115.21 99.3385 114.043C99.0349 112.39 99.9271 108.241 100.009 106.313C99.8726 106.456 99.8569 106.403 99.7101 106.66C99.6125 106.831 99.5591 107.006 99.4816 107.216C98.9199 108.735 98.1289 114.351 98.151 115.576C98.1785 117.109 99.3652 118.83 100.919 117.854C102.584 116.808 101.353 115.803 104.215 115.535L104.215 115.534Z" fill="#1C398E"/>
<path fill-rule="evenodd" clip-rule="evenodd" d="M158.446 115.132C159.374 113.56 159.474 112.506 161.036 112.905L161.664 113.269C161.193 114.21 159.925 115.25 158.446 115.132V115.132ZM163.107 112.015C161.348 111.888 160.717 111.249 159.625 112.405C158.805 113.272 158.534 114.522 157.794 115.207C154.81 114.834 156.569 109.047 156.691 106.46C156.45 106.689 156.572 106.388 156.273 106.961C156.254 106.998 156.045 107.591 156.023 107.661C155.887 108.105 155.797 108.624 155.716 109.085C155.535 110.109 155.416 110.992 155.269 112.076C155 114.045 154.515 116.413 155.987 117.566C157.733 118.932 159.797 117.493 160.652 116.309C161.075 115.723 163.09 112.514 163.108 112.015L163.107 112.015Z" fill="#1C398E"/>
<path fill-rule="evenodd" clip-rule="evenodd" d="M172.577 110.513C169.272 110.733 168.84 110.21 165.612 114.912C164.848 116.025 163.937 117.264 163.102 118.174C161.79 119.604 160.446 120.005 159.849 120.773C164.599 119.681 165.68 114.891 168.853 113.531C169.992 113.043 170.709 113.558 171.574 112.982C172.464 112.39 173.789 110.276 174.033 108.783C173.272 109.177 173.015 109.892 172.577 110.513L172.577 110.513Z" fill="#1C398E"/>
<path fill-rule="evenodd" clip-rule="evenodd" d="M144.537 111.554C144.173 112.333 143.624 112.91 142.631 113.004C142.588 111.742 142.323 110.89 141.026 110.96C140.322 111.22 138.638 114.147 140.041 114.78L141.541 114.842C140.821 116.763 139.299 116.795 138.18 118.048C142.053 118.186 141.181 115.028 142.937 114.029C144.771 112.985 147.176 111.979 147.44 109.55L146.824 110.212C146.302 110.602 146.534 110.171 146.06 110.608C145.386 111.23 145.925 111.471 144.537 111.554H144.537Z" fill="#1C398E"/>
<path fill-rule="evenodd" clip-rule="evenodd" d="M117.826 77.4473C117.156 78.1501 117.692 78.3743 116.55 78.8583C115.663 78.6443 115.512 78.4193 115.395 77.3752C115.124 74.9574 115.8 72.2659 115.985 69.818C115.822 69.9795 115.842 69.8747 115.677 70.1563L114.196 78.714C114.351 84.2033 118.254 80.8376 117.826 77.4473H117.826Z" fill="#1C398E"/>
<path fill-rule="evenodd" clip-rule="evenodd" d="M75.3032 103.652C76.2173 103.362 76.537 102.953 77.8023 102.91C79.0761 102.865 79.8056 103.087 80.9357 102.572C82.0695 102.055 83.8721 100.195 84.1734 98.8599C81.9831 99.8767 83.6339 100.572 79.3498 100.715C77.4351 100.78 75.6912 102.292 75.3032 103.652V103.652Z" fill="#1C398E"/>
<path fill-rule="evenodd" clip-rule="evenodd" d="M38.4941 114.683C39.2717 114.813 39.6544 115.089 39.7242 115.956C38.4763 117.484 36.67 116.083 38.4941 114.683ZM37.0281 117.632C39.3349 119.874 43.3334 112.648 39.0723 111.801C38.511 112.386 37.9476 113.636 37.7864 114.43C37.5062 115.811 36.6903 115.735 37.0281 117.632Z" fill="#1C398E"/>
<path fill-rule="evenodd" clip-rule="evenodd" d="M50.8616 114.229C51.5006 115.022 51.6013 114.89 52.8896 114.842C52.4129 116.575 50.311 117.155 49.6084 118.105C51.8837 117.944 52.4853 117.241 53.2617 115.495C53.8993 114.061 54.6685 111.841 52.9488 110.939C51.7403 111.032 50.745 112.856 50.8614 114.229H50.8616Z" fill="#1C398E"/>
<path fill-rule="evenodd" clip-rule="evenodd" d="M56.4397 114.265C57.1249 114.963 56.6841 114.779 58.4976 114.857C58.2352 115.907 57.0346 116.756 56.2096 117.284L55.217 118.096C57.6629 117.979 58.1166 117.138 58.9223 115.379C59.5515 114.005 60.2774 111.134 58.1527 110.931C57.157 111.49 56.424 112.928 56.4397 114.265V114.265Z" fill="#1C398E"/>
<path fill-rule="evenodd" clip-rule="evenodd" d="M40.4739 118.023C41.4302 118.112 43.121 117.744 43.7035 117.306C44.3535 116.816 44.6738 115.571 45.0696 114.634C45.9977 112.438 48.0944 113.908 48.5755 109.762C47.7263 110.203 48.1376 110.329 47.65 110.872C47.3388 111.218 46.8288 111.34 46.3418 111.681C45.4703 112.291 45.1222 112.91 44.6025 113.98C43.243 116.78 40.8854 116.626 40.4741 118.023H40.4739Z" fill="#1C398E"/>
<path fill-rule="evenodd" clip-rule="evenodd" d="M96.9204 71.8433C96.8642 71.7839 96.8228 71.6738 96.8122 71.702C96.7516 71.8617 96.678 71.4533 96.6716 71.4408C96.3322 70.7862 96.276 70.659 95.5422 70.262C94.934 70.6254 94.1613 71.9409 94.002 72.5985C94.5615 72.9218 94.7911 73.2624 95.3494 73.5616C96.242 73.1316 95.9584 72.949 96.6985 72.4007C97.1287 72.7453 97.5016 73.0695 98.0477 73.3811C99.618 72.5987 100.002 70.8413 98.0483 70.1223L96.9204 71.8433Z" fill="#1C398E"/>
<path fill-rule="evenodd" clip-rule="evenodd" d="M13.4078 113.334C17.0643 115.531 13.2258 116.734 12.415 118.083C14.5393 117.701 15.161 117.069 15.8918 115.139C16.7439 112.889 15.9682 111.456 14.5957 110.657C14.1914 111.138 13.5548 112.651 13.408 113.334H13.4078Z" fill="#1C398E"/>
<path fill-rule="evenodd" clip-rule="evenodd" d="M88.7932 104.875C88.2665 104.262 88.5405 104.283 88.2168 103.863C87.9474 103.514 87.7117 103.428 87.2548 103.304C86.7126 103.926 86.0156 104.77 85.9133 105.59L87.2266 106.639C87.9697 106.192 88.1197 105.906 88.3988 105.386L89.9143 106.465C91.4388 105.439 91.809 103.88 89.9529 103.18L88.793 104.876L88.7932 104.875Z" fill="#1C398E"/>
<path fill-rule="evenodd" clip-rule="evenodd" d="M61.6933 113.298C64.9768 115.247 62.513 116.326 60.744 118.014C63.9989 118.141 66.3117 112.716 62.9709 110.657L61.6933 113.298Z" fill="#1C398E"/>
<path fill-rule="evenodd" clip-rule="evenodd" d="M113.812 90.2318L115.145 91.3253C116.153 90.6677 115.645 90.8564 116.357 90.1464C117.292 90.5035 116.991 90.759 117.899 91.0595C119.105 90.3797 119.802 88.6247 117.899 87.8598L116.773 89.5341C115.998 88.761 116.478 88.484 115.2 87.945C114.763 88.3519 113.938 89.5973 113.812 90.232L113.812 90.2318Z" fill="#1C398E"/>
<path fill-rule="evenodd" clip-rule="evenodd" d="M146.382 103.843C145.963 102.994 145.989 102.562 145.074 102.184C144.448 102.615 143.955 103.569 143.577 104.246C143.888 104.725 144.432 105.189 145.074 105.396L146.301 104.213L147.548 105.276C149.051 104.627 149.663 102.667 147.615 101.999L146.382 103.843V103.843Z" fill="#1C398E"/>
<path fill-rule="evenodd" clip-rule="evenodd" d="M128.885 123.205C130.187 122.339 130.817 120.735 128.826 119.937L127.708 121.726C127.11 120.994 127.458 120.476 126.114 120.066L124.798 122.291C125.192 122.719 125.649 123.183 126.186 123.393C126.79 122.986 126.883 122.846 127.286 122.139L128.885 123.205V123.205Z" fill="#1C398E"/>
<path fill-rule="evenodd" clip-rule="evenodd" d="M31.4841 99.641C30.8253 98.888 31.4035 98.56 30.0141 98.0705L28.5389 100.181C28.782 100.512 28.6198 100.351 28.8643 100.587L30.0139 101.361L31.129 100.149C31.8246 100.555 31.9716 100.886 32.7121 101.178C33.8549 100.398 34.6777 98.8654 32.7121 97.9412L31.4841 99.6413V99.641Z" fill="#1C398E"/>
<path fill-rule="evenodd" clip-rule="evenodd" d="M28.0941 103.545C27.7615 103.252 28.0875 103.653 27.7725 103.211C27.6297 103.011 27.6951 103.007 27.4953 102.721C27.2085 102.311 27.0892 102.231 26.5449 102.049L25.1423 104.246L26.4955 105.408L27.3497 104.465C27.5515 104.246 27.4789 104.336 27.7014 104.176L29.2143 105.191C30.5368 104.233 31.1712 102.759 29.2434 101.926L28.0945 103.546L28.0941 103.545Z" fill="#1C398E"/>
<path fill-rule="evenodd" clip-rule="evenodd" d="M45.5805 106.374C45.3507 105.501 45.0069 105.163 44.2761 104.886L42.8175 106.979C43.2558 107.475 43.5837 107.909 44.4689 107.954L45.4 106.905C46.1341 107.254 46.2512 107.598 46.9744 107.884C48.1298 107.172 48.9586 105.492 46.9744 104.658C46.5592 105.018 46.6078 105.025 46.3083 105.502C46.1836 105.701 46.1575 105.784 46.01 105.969C45.7332 106.316 45.7826 106.213 45.5805 106.374V106.374Z" fill="#1C398E"/>
<path fill-rule="evenodd" clip-rule="evenodd" d="M170.321 121.945C171.898 121.005 172.163 119.348 170.285 118.672L169.216 120.446C168.439 119.677 168.742 119.279 167.576 118.998L166.259 121.174L167.623 122.121C168.296 121.82 168.47 121.534 168.792 120.881L170.322 121.945L170.321 121.945Z" fill="#1C398E"/>
<path fill-rule="evenodd" clip-rule="evenodd" d="M148.408 118.779C149.344 118.642 149.046 118.053 150.268 118.012C151.279 117.977 151.78 118.23 152.535 117.632C153.074 117.205 154.579 115.188 154.132 114.293C153.731 114.626 153.476 115.306 152.913 115.475C151.948 115.764 151.456 115.125 150.489 115.789C149.796 116.265 148.667 117.687 148.409 118.779H148.408Z" fill="#1C398E"/>
<path fill-rule="evenodd" clip-rule="evenodd" d="M65.6519 117.287C67.421 116.039 67.8764 108.979 67.9083 107.02C66.3515 108.868 66.2747 113.901 65.6519 117.287Z" fill="#1C398E"/>
<path fill-rule="evenodd" clip-rule="evenodd" d="M32.6915 117.276C34.735 115.772 34.889 107.029 34.8883 107.027C34.0831 108.229 33.5415 109.947 33.4456 111.732C33.3313 113.863 33.0118 115.336 32.6915 117.276Z" fill="#1C398E"/>
<path fill-rule="evenodd" clip-rule="evenodd" d="M76.3815 117.371C78.4074 114.044 78.237 111.696 78.5883 107.084C78.5554 107.121 78.5001 107.124 78.4871 107.192L78.3125 107.423C78.2934 107.456 78.2638 107.512 78.244 107.55C76.9017 110.088 77.162 112.05 76.8215 114.799C76.7284 115.55 76.3607 116.857 76.3813 117.371L76.3815 117.371Z" fill="#1C398E"/>
<path fill-rule="evenodd" clip-rule="evenodd" d="M129.925 117.27C131.645 116.45 132.072 109.547 132.195 107.101L131.161 109.213C130.454 111.085 130.878 114.22 129.925 117.27Z" fill="#1C398E"/>
<path fill-rule="evenodd" clip-rule="evenodd" d="M67.505 81.6308C71.3874 81.1627 71.4572 79.4362 72.2244 75.448C72.5119 73.9537 72.3216 74.5177 72.2219 74.3429C70.541 76.6919 72.8108 77.0583 68.2589 80.7148C67.6821 81.1782 67.8024 80.8623 67.505 81.6308Z" fill="#1C398E"/>
<path fill-rule="evenodd" clip-rule="evenodd" d="M118.369 81.5361C119.689 81.702 121.492 81.0827 122.175 79.3526C122.682 78.0677 123.16 75.7208 123.294 74.3085C122.578 74.7545 122.068 77.7799 121.464 78.6151C120.683 79.6953 118.917 80.6523 118.369 81.5361H118.369Z" fill="#1C398E"/>
<path fill-rule="evenodd" clip-rule="evenodd" d="M68.5539 118.072C69.4404 118.03 70.2662 117.778 71.0169 117.434C71.7592 117.093 72.0267 116.718 72.3926 115.734C72.9021 114.365 73.2672 112.314 73.4929 110.815C72.9138 111.063 72.9149 111.723 72.5655 112.843C71.2448 117.077 69.5187 116.162 68.5537 118.072L68.5539 118.072Z" fill="#1C398E"/>
<path fill-rule="evenodd" clip-rule="evenodd" d="M133.062 118.095C136.977 117.686 137.053 115.806 137.802 111.949C137.812 111.896 137.923 111.324 137.922 111.31C137.907 110.348 137.979 111.131 137.726 110.762C136.614 113.785 137.244 114.306 134.663 116.529C134.067 117.043 133.419 117.28 133.062 118.095V118.095Z" fill="#1C398E"/>
<path fill-rule="evenodd" clip-rule="evenodd" d="M71.2521 107.337C72.0041 107.718 71.9447 108.053 72.8 108.279C74.1873 107.405 74.8205 105.715 72.8 104.974C72.1833 105.513 71.5541 106.471 71.2521 107.337V107.337Z" fill="#1C398E"/>
<path fill-rule="evenodd" clip-rule="evenodd" d="M84.4783 83.3795L85.8883 84.2747C87.3314 83.5548 88.0501 81.4294 85.9059 80.97C85.3832 81.541 84.6478 82.5668 84.4783 83.3795Z" fill="#1C398E"/>
<path fill-rule="evenodd" clip-rule="evenodd" d="M151.657 109.971C152.07 110.384 152.625 110.864 153.169 111.064C154.727 110.207 155.122 108.309 153.169 107.76L151.657 109.971Z" fill="#1C398E"/>
<path fill-rule="evenodd" clip-rule="evenodd" d="M159.131 106.529C159.458 107 159.996 107.415 160.492 107.702C161.964 107.184 162.76 105.18 160.685 104.379L159.131 106.529Z" fill="#1C398E"/>
<path fill-rule="evenodd" clip-rule="evenodd" d="M100.611 107.692L102.036 108.909C103.394 108.157 104.214 106.149 102.095 105.539L100.611 107.692H100.611Z" fill="#1C398E"/>
<path fill-rule="evenodd" clip-rule="evenodd" d="M44.2761 125C45.4662 123.992 46.0888 122.501 44.2761 121.708C43.6707 122.194 43.2004 123.139 42.7959 123.827C43.1459 124.369 43.6154 124.804 44.2761 125V125Z" fill="#1C398E"/>
<path fill-rule="evenodd" clip-rule="evenodd" d="M46.9744 124.805C48.2503 123.907 48.8307 122.525 46.898 121.538L45.3961 123.859C46.1954 124.252 46.1055 124.59 46.9744 124.805V124.805Z" fill="#1C398E"/>
<path fill-rule="evenodd" clip-rule="evenodd" d="M44.3207 103.67C44.6785 104.098 45.2271 104.536 45.8179 104.706C47.1305 103.882 47.5026 102.329 45.8179 101.517C45.5198 101.712 45.6828 101.507 45.3817 101.896L44.3207 103.67V103.67Z" fill="#1C398E"/>
<path fill-rule="evenodd" clip-rule="evenodd" d="M145.014 100.953L146.423 102.093C147.738 101.531 148.503 99.3928 146.423 98.8874L145.014 100.952V100.953Z" fill="#1C398E"/>
<path fill-rule="evenodd" clip-rule="evenodd" d="M158.446 115.132C159.925 115.25 161.193 114.21 161.664 113.269L161.036 112.905C159.474 112.506 159.374 113.56 158.446 115.131V115.132Z" fill="#E6E6E6"/>
<path fill-rule="evenodd" clip-rule="evenodd" d="M24.1415 113.937C25.5526 114.169 26.9125 113.507 27.3119 112.647C26.634 112.183 26.1124 111.97 25.298 112.606C25.0494 112.801 24.2825 113.573 24.1415 113.937Z" fill="#E6E6E6"/>
<path fill-rule="evenodd" clip-rule="evenodd" d="M38.4941 114.683C36.67 116.083 38.4763 117.484 39.7242 115.956C39.6547 115.089 39.2718 114.813 38.4941 114.683Z" fill="#E6E6E6"/>
</g>
<defs>
<clipPath id="clip0_31_893">
<rect width="178" height="125" fill="white"/>
</clipPath>
</defs>
</svg>
