<svg width="222" height="66" viewBox="0 0 222 66" fill="none" xmlns="http://www.w3.org/2000/svg">
<path d="M8.76339 26.0187H6.78758C5.75425 26.0187 4.8288 25.9544 4.01123 25.8258C3.19933 25.6971 2.5095 25.4818 1.94174 25.1798C1.37398 24.8778 0.939644 24.4724 0.638731 23.9634C0.343495 23.4545 0.195877 22.8142 0.195877 22.0424C0.195877 21.6062 0.244137 21.1811 0.340656 20.7673C0.442853 20.3478 0.570599 19.9536 0.723895 19.5845L2.35905 20.1885C2.2682 20.4401 2.18304 20.7225 2.10355 21.0357C2.02974 21.3433 1.99284 21.6369 1.99284 21.9166C1.99284 22.3752 2.10355 22.7471 2.32498 23.0323C2.55208 23.3175 2.87287 23.5384 3.28733 23.695C3.70748 23.846 4.20995 23.9523 4.79474 24.0138C5.38521 24.0697 6.04949 24.0977 6.78758 24.0977H8.78042C9.22895 24.0977 9.66045 24.0837 10.0749 24.0557C10.4951 24.0222 10.8698 23.9551 11.1991 23.8544C11.5341 23.7537 11.8009 23.5971 11.9996 23.3846C12.1983 23.1721 12.2977 22.8841 12.2977 22.5206C12.2977 22.1794 12.2608 21.7851 12.187 21.3377C12.1132 20.8903 12.028 20.4541 11.9315 20.0291L13.7455 19.5761C13.8534 20.0514 13.9357 20.5352 13.9925 21.0273C14.0492 21.5139 14.0776 21.9557 14.0776 22.3528C14.0776 23.1469 13.9414 23.7873 13.6688 24.2738C13.3963 24.7604 13.0188 25.1295 12.5362 25.3812C12.0536 25.6328 11.4915 25.8034 10.8499 25.8929C10.2083 25.9768 9.51283 26.0187 8.76339 26.0187ZM8.61861 17.3614L9.93013 18.6449L8.61861 19.9452L7.32411 18.6449L8.61861 17.3614ZM5.77413 17.3614L7.08565 18.6449L5.77413 19.9452L4.47112 18.6449L5.77413 17.3614Z" fill="#00A29A"/>
<path d="M16.1045 14.375H17.9185V22.2437C17.9185 22.9484 18.0378 23.4349 18.2762 23.7034C18.5204 23.9662 18.932 24.0977 19.5111 24.0977H19.724V26.0187H19.5111C18.3415 26.0187 17.4813 25.7195 16.9306 25.1211C16.3799 24.5171 16.1045 23.586 16.1045 22.3276V14.375Z" fill="#00A29A"/>
<path d="M19.3919 24.0977H24.5443V26.0187H19.3919V24.0977Z" fill="#00A29A"/>
<path d="M24.2122 24.0977H29.3646V26.0187H24.2122V24.0977Z" fill="#00A29A"/>
<path d="M29.0324 24.0977H34.1849V26.0187H29.0324V24.0977Z" fill="#00A29A"/>
<path d="M33.8527 24.0977H39.0052V26.0187H33.8527V24.0977Z" fill="#00A29A"/>
<path d="M38.673 24.0977H43.8254V26.0187H38.673V24.0977Z" fill="#00A29A"/>
<path d="M43.4933 24.0977H48.6457V26.0187H43.4933V24.0977Z" fill="#00A29A"/>
<path d="M53.8663 21.4803C53.6051 21.4803 53.3667 21.567 53.1509 21.7404C52.9408 21.9082 52.7506 22.1235 52.5803 22.3863C52.4157 22.6492 52.2709 22.912 52.146 23.1749C52.322 23.3427 52.4923 23.4909 52.657 23.6195C52.8216 23.7481 52.9806 23.8572 53.1339 23.9467C53.3553 24.0809 53.5625 24.1788 53.7556 24.2403C53.9486 24.3018 54.1218 24.3326 54.2751 24.3326C54.6441 24.3326 54.9138 24.2263 55.0841 24.0138C55.2601 23.8013 55.3481 23.5188 55.3481 23.1665C55.3481 22.6855 55.2176 22.2857 54.9564 21.9669C54.6952 21.6425 54.3319 21.4803 53.8663 21.4803ZM54.2751 26.2117C53.889 26.2117 53.5228 26.1557 53.1765 26.0439C52.8358 25.932 52.5008 25.7726 52.1715 25.5657C51.8422 25.3588 51.5072 25.1099 51.1666 24.8191C50.9395 25.0596 50.7152 25.2721 50.4938 25.4567C50.278 25.6356 50.0282 25.7754 49.7444 25.8761C49.4605 25.9712 49.1085 26.0187 48.6883 26.0187H48.3136V24.0977H48.6457C48.9807 24.0977 49.2703 23.9914 49.5144 23.7789C49.7585 23.5608 49.9828 23.284 50.1872 22.9484C50.3973 22.6072 50.6073 22.2465 50.8174 21.8662C51.0332 21.4859 51.2745 21.1252 51.5413 20.7841C51.8082 20.4429 52.1233 20.1661 52.4866 19.9536C52.8557 19.7411 53.2985 19.6348 53.8152 19.6348C54.4851 19.6348 55.0643 19.7914 55.5525 20.1046C56.0465 20.4178 56.4269 20.8372 56.6937 21.3629C56.9663 21.883 57.1025 22.4562 57.1025 23.0826C57.1025 23.7146 56.9947 24.2654 56.7789 24.7352C56.5632 25.1994 56.2452 25.5629 55.8251 25.8258C55.4049 26.083 54.8883 26.2117 54.2751 26.2117Z" fill="#00A29A"/>
<path d="M63.5494 22.7135C63.5494 22.5737 63.5154 22.3891 63.4473 22.1598C63.3848 21.925 63.3138 21.718 63.2343 21.5391L61.6503 18.0493L63.2854 17.2775L65.2953 21.8998C65.5167 22.4087 65.7126 22.8254 65.8829 23.1497C66.0533 23.4741 66.2293 23.7146 66.411 23.8712C66.5926 24.0222 66.8112 24.0977 67.0667 24.0977H67.4244V26.0187H67.0667C66.6295 26.0187 66.2633 25.9656 65.9681 25.8593C65.6729 25.7531 65.4174 25.5993 65.2016 25.3979C64.9859 25.191 64.7758 24.9422 64.5714 24.6513C64.2989 24.9533 63.9809 25.205 63.6176 25.4063C63.2599 25.6077 62.8483 25.7587 62.3827 25.8593C61.9228 25.96 61.3948 26.0103 60.7986 26.0103C60.3615 26.0103 59.9754 25.9936 59.6404 25.96C59.3111 25.9209 58.9875 25.8649 58.6695 25.7922V23.8796C59.0159 23.9579 59.3594 24.0166 59.7 24.0557C60.0407 24.0949 60.3643 24.1144 60.6709 24.1144C61.2443 24.1144 61.744 24.0669 62.1698 23.9718C62.6013 23.8768 62.9391 23.7258 63.1832 23.5188C63.4274 23.3119 63.5494 23.0435 63.5494 22.7135Z" fill="#00A29A"/>
<path d="M67.0838 24.0977H72.2362V26.0187H67.0838V24.0977Z" fill="#00A29A"/>
<path d="M71.904 24.0977H77.0565V26.0187H71.904V24.0977Z" fill="#00A29A"/>
<path d="M76.7243 24.0977H81.8768V26.0187H76.7243V24.0977Z" fill="#00A29A"/>
<path d="M86.8503 14.8951L88.213 16.2373L86.8503 17.5795L85.4877 16.2373L86.8503 14.8951ZM81.5446 24.0977H82.9924C83.6056 24.0977 84.1734 24.0473 84.6957 23.9467C85.2237 23.846 85.7404 23.7062 86.2457 23.5272C86.7567 23.3427 87.2904 23.1218 87.8468 22.8645C88.4089 22.6017 89.0334 22.3108 89.7204 21.9921C89.3002 21.8411 88.8914 21.6901 88.494 21.5391C88.1023 21.3825 87.7361 21.2399 87.3954 21.1112C87.0604 20.9826 86.7709 20.8791 86.5267 20.8008C86.2826 20.717 86.1066 20.675 85.9987 20.675C85.6694 20.675 85.3742 20.7729 85.113 20.9686C84.8575 21.1588 84.6332 21.3797 84.4402 21.6313L84.1166 22.034L82.5496 21.279L82.788 20.9015C83.1684 20.2807 83.6226 19.7746 84.1506 19.3831C84.6787 18.9916 85.2975 18.7959 86.0072 18.7959C86.3025 18.7959 86.6516 18.8686 87.0547 19.014C87.4635 19.1538 87.9035 19.33 88.3748 19.5425C88.8517 19.755 89.3428 19.9703 89.8481 20.1885C90.3591 20.401 90.8644 20.5827 91.364 20.7337C91.8693 20.8791 92.3519 20.9602 92.8118 20.977V22.7638C92.4882 22.803 92.1532 22.8813 91.8069 22.9987C91.4662 23.1106 91.0802 23.27 90.6487 23.4769C90.2228 23.6782 89.7261 23.9271 89.1583 24.2235C88.4316 24.6038 87.7502 24.9282 87.1144 25.1966C86.4841 25.4651 85.8397 25.6692 85.1811 25.809C84.5225 25.9488 83.7844 26.0187 82.9669 26.0187H81.5446V24.0977Z" fill="#00A29A"/>
<path d="M103.807 22.9484C103.807 22.7247 103.716 22.4898 103.534 22.2437C103.358 21.9921 103.139 21.7432 102.878 21.4971C102.617 21.251 102.353 21.0218 102.086 20.8092C101.808 21.0721 101.553 21.3321 101.32 21.5894C101.093 21.8411 100.911 22.0899 100.775 22.336C100.644 22.5765 100.579 22.8198 100.579 23.0658C100.579 23.3567 100.712 23.6027 100.979 23.8041C101.246 23.9998 101.646 24.0977 102.18 24.0977C102.736 24.0977 103.145 24.0054 103.406 23.8208C103.673 23.6307 103.807 23.3399 103.807 22.9484ZM100.758 19.66L100.426 19.3663L101.558 17.9319C102.098 18.3625 102.606 18.7819 103.083 19.1902C103.565 19.5928 103.994 19.9983 104.369 20.4066C104.743 20.8092 105.036 21.2231 105.246 21.6481C105.462 22.0732 105.569 22.5178 105.569 22.982C105.569 23.6027 105.427 24.1368 105.144 24.5842C104.86 25.0316 104.462 25.3784 103.951 25.6244C103.446 25.8649 102.858 25.9852 102.188 25.9852C101.121 25.9852 100.289 25.7279 99.6931 25.2134C99.1026 24.6933 98.8074 24.0389 98.8074 23.2504C98.8074 22.5737 98.9834 21.9585 99.3354 21.4048C99.6874 20.8512 100.161 20.2696 100.758 19.66Z" fill="#00A29A"/>
<path d="M107.588 14.375H109.402V22.2437C109.402 22.9484 109.521 23.4349 109.759 23.7034C110.004 23.9662 110.415 24.0977 110.994 24.0977H111.207V26.0187H110.994C109.825 26.0187 108.965 25.7195 108.414 25.1211C107.863 24.5171 107.588 23.586 107.588 22.3276V14.375Z" fill="#00A29A"/>
<path d="M110.875 24.0977H116.028V26.0187H110.875V24.0977Z" fill="#00A29A"/>
<path d="M115.695 24.0977H120.848V26.0187H115.695V24.0977Z" fill="#00A29A"/>
<path d="M120.516 24.0977H125.668V26.0187H120.516V24.0977Z" fill="#00A29A"/>
<path d="M125.336 24.0977H130.488V26.0187H125.336V24.0977Z" fill="#00A29A"/>
<path d="M130.931 15.9101V14.8364L137.6 12.1687V13.2425L130.931 15.9101ZM132.66 18.0493C133.08 18.3233 133.498 18.6002 133.912 18.8798C134.326 19.1594 134.715 19.4474 135.079 19.7438C135.442 20.0403 135.763 20.3534 136.041 20.6834C136.325 21.0134 136.546 21.3629 136.705 21.732C136.864 22.0955 136.944 22.4842 136.944 22.8981C136.944 23.6754 136.765 24.2906 136.407 24.7436C136.05 25.1966 135.519 25.5238 134.815 25.7251C134.116 25.9209 133.256 26.0187 132.234 26.0187H130.156V24.0977H132.226C132.907 24.0977 133.461 24.0641 133.886 23.997C134.318 23.9243 134.636 23.7985 134.84 23.6195C135.05 23.4405 135.155 23.1889 135.155 22.8645C135.155 22.6352 135.065 22.4003 134.883 22.1598C134.707 21.9138 134.471 21.6677 134.176 21.4216C133.881 21.17 133.557 20.9239 133.205 20.6834C132.853 20.4373 132.498 20.1941 132.141 19.9536C131.783 19.7131 131.454 19.4782 131.153 19.2489C130.948 19.0923 130.789 18.8994 130.676 18.6701C130.568 18.4408 130.514 18.2059 130.514 17.9654C130.514 17.7026 130.582 17.4537 130.718 17.2188C130.86 16.9783 131.076 16.8022 131.366 16.6903L137.685 14.1569V16.0444L132.66 18.0493Z" fill="#00A29A"/>
<path d="M136.944 30.5571L136.288 28.829C137.168 28.6388 137.892 28.3676 138.46 28.0153C139.033 27.6685 139.459 27.2323 139.737 26.7066C140.015 26.1865 140.155 25.5685 140.155 24.8527C140.155 24.3605 140.089 23.8292 139.959 23.2588C139.828 22.6883 139.669 22.1291 139.482 21.581L141.279 20.9938C141.489 21.581 141.648 22.185 141.756 22.8058C141.869 23.4266 141.926 24.0278 141.926 24.6094C141.926 25.6496 141.736 26.578 141.355 27.3945C140.975 28.211 140.416 28.8905 139.678 29.433C138.94 29.9755 138.028 30.3502 136.944 30.5571Z" fill="#00A29A"/>
<path d="M145.58 24.1228C146.198 24.1228 146.741 24.0725 147.206 23.9718C147.677 23.8712 148.044 23.7146 148.305 23.5021C148.566 23.284 148.697 22.9959 148.697 22.638C148.697 22.2857 148.552 21.9166 148.262 21.5307C147.978 21.1448 147.567 20.7533 147.027 20.3562C146.494 19.9536 145.844 19.5565 145.077 19.165L145.92 17.4705C146.59 17.8004 147.203 18.1528 147.76 18.5275C148.316 18.9022 148.796 19.302 149.199 19.7271C149.602 20.1521 149.912 20.6023 150.127 21.0777C150.349 21.5475 150.459 22.048 150.459 22.5793C150.459 23.3678 150.278 24.0166 149.914 24.5255C149.557 25.0288 149.026 25.4007 148.322 25.6412C147.618 25.8817 146.746 26.0019 145.707 26.0019C145.298 26.0019 144.91 25.9852 144.541 25.9516C144.177 25.9181 143.828 25.8649 143.493 25.7922V23.8796C143.862 23.9523 144.228 24.011 144.592 24.0557C144.955 24.1005 145.284 24.1228 145.58 24.1228Z" fill="#00A29A"/>
<path d="M5.05875 41.4598L6.42137 42.8021L5.05875 44.1443L3.69612 42.8021L5.05875 41.4598ZM5.16946 50.7379C6.06084 50.7379 6.75635 50.5953 7.25598 50.3101C7.75561 50.0249 8.10762 49.6446 8.31202 49.1692C8.51641 48.6994 8.61861 48.1849 8.61861 47.6257C8.61861 46.9825 8.52209 46.3394 8.32905 45.6962C8.14169 45.0531 7.95149 44.4882 7.75845 44.0017L9.57244 43.3054C9.862 44.0772 10.0749 44.8098 10.2112 45.5033C10.3474 46.1968 10.4156 46.8762 10.4156 47.5418C10.4156 48.5596 10.2254 49.4488 9.84497 50.2094C9.46457 50.9756 8.88545 51.5712 8.10762 51.9963C7.33547 52.4213 6.35608 52.6338 5.16946 52.6338C3.9431 52.6338 2.94952 52.4073 2.18872 51.9543C1.42792 51.5069 0.871513 50.9029 0.519501 50.1423C0.173167 49.3817 0 48.5372 0 47.6089C0 46.9825 0.0652925 46.3394 0.195877 45.6794C0.33214 45.0139 0.52234 44.3596 0.766477 43.7164L2.43569 44.3624C2.25401 44.9105 2.09788 45.4613 1.96729 46.015C1.84238 46.5631 1.77993 47.0888 1.77993 47.5921C1.77993 48.1681 1.88213 48.6938 2.08652 49.1692C2.29659 49.6446 2.64576 50.0249 3.13404 50.3101C3.62799 50.5953 4.30646 50.7379 5.16946 50.7379Z" fill="#00A29A"/>
<path d="M14.2565 37.2822V48.9175H12.4425V37.2822H14.2565Z" fill="#00A29A"/>
<path d="M21.0866 48.9259C20.7573 48.9259 20.4678 48.8868 20.218 48.8085C19.9738 48.7246 19.7779 48.6295 19.6303 48.5233C19.5168 49.3118 19.2698 50.0444 18.8894 50.7211C18.509 51.3978 17.9753 51.9739 17.2883 52.4493C16.607 52.9246 15.7468 53.263 14.7078 53.4643L14.0606 51.7362C14.9406 51.5461 15.6645 51.2748 16.2323 50.9225C16.8057 50.5757 17.2315 50.1395 17.5097 49.6138C17.7879 49.0937 17.927 48.4757 17.927 47.7599C17.927 47.2677 17.8617 46.7364 17.7312 46.166C17.6006 45.5955 17.4416 45.0363 17.2542 44.4882L19.0512 43.901L19.5281 45.7214C19.6417 46.1464 19.8148 46.468 20.0476 46.6861C20.2804 46.8986 20.5955 47.0049 20.993 47.0049H21.3166V48.9259H21.0866Z" fill="#00A29A"/>
<path d="M20.9759 47.0049H22.2619V48.9259H20.9759V47.0049ZM23.4031 48.9259H22.032V47.0049H23.4031C23.9084 47.0049 24.2519 46.8567 24.4336 46.5603C24.6209 46.2639 24.7146 45.8864 24.7146 45.4278C24.7146 45.0531 24.6749 44.6532 24.5954 44.2282C24.5159 43.7975 24.4336 43.3669 24.3484 42.9363L26.1539 42.4833C26.2561 42.9642 26.3356 43.4396 26.3924 43.9094C26.4548 44.3792 26.486 44.8266 26.486 45.2516C26.486 45.9563 26.3895 46.5854 26.1965 47.1391C26.0034 47.6928 25.6827 48.129 25.2341 48.4478C24.7856 48.7665 24.1752 48.9259 23.4031 48.9259ZM24.638 50.1423L25.9495 51.4258L24.638 52.7261L23.3435 51.4258L24.638 50.1423ZM21.7935 50.1423L23.105 51.4258L21.7935 52.7261L20.4905 51.4258L21.7935 50.1423Z" fill="#00A29A"/>
<path d="M30.3355 37.2822V48.9175H28.5215V37.2822H30.3355Z" fill="#00A29A"/>
<path d="M41.8922 45.8556C41.8922 45.6319 41.8014 45.397 41.6197 45.1509C41.4437 44.8993 41.2251 44.6504 40.9639 44.4043C40.7028 44.1583 40.4388 43.929 40.1719 43.7164C39.8937 43.9793 39.6382 44.2393 39.4054 44.4966C39.1783 44.7483 38.9966 44.9971 38.8604 45.2432C38.7298 45.4837 38.6645 45.727 38.6645 45.973C38.6645 46.2639 38.7979 46.5099 39.0648 46.7113C39.3316 46.907 39.7319 47.0049 40.2656 47.0049C40.822 47.0049 41.2308 46.9126 41.4919 46.728C41.7588 46.5379 41.8922 46.2471 41.8922 45.8556ZM38.8433 42.5672L38.5112 42.2736L39.6439 40.8391C40.1833 41.2697 40.6914 41.6891 41.1683 42.0974C41.6509 42.5001 42.0796 42.9055 42.4543 43.3138C42.829 43.7164 43.1214 44.1303 43.3315 44.5553C43.5472 44.9804 43.6551 45.425 43.6551 45.8892C43.6551 46.5099 43.5132 47.044 43.2293 47.4914C42.9454 47.9388 42.548 48.2856 42.037 48.5317C41.5317 48.7721 40.9441 48.8924 40.2741 48.8924C39.2067 48.8924 38.3749 48.6351 37.7788 48.1206C37.1883 47.6005 36.8931 46.9462 36.8931 46.1576C36.8931 45.4809 37.0691 44.8657 37.4211 44.312C37.7731 43.7584 38.2472 43.1768 38.8433 42.5672Z" fill="#00A29A"/>
<path d="M46.5592 38.2385L47.8026 39.4633L46.5592 40.6881L45.3158 39.4633L46.5592 38.2385ZM48.0326 40.3693L49.2759 41.5941L48.0326 42.8188L46.7806 41.5941L48.0326 40.3693ZM45.0944 40.3693L46.3378 41.5941L45.0944 42.8188L43.8425 41.5941L45.0944 40.3693ZM49.9232 48.9259C49.5939 48.9259 49.3043 48.8868 49.0545 48.8085C48.8104 48.7246 48.6145 48.6295 48.4669 48.5233C48.3533 49.3118 48.1064 50.0444 47.726 50.7211C47.3456 51.3978 46.8119 51.9739 46.1249 52.4493C45.4436 52.9246 44.5834 53.263 43.5444 53.4643L42.8972 51.7362C43.7772 51.5461 44.5011 51.2748 45.0688 50.9225C45.6423 50.5757 46.0681 50.1395 46.3463 49.6138C46.6245 49.0937 46.7636 48.4757 46.7636 47.7599C46.7636 47.2677 46.6983 46.7364 46.5677 46.166C46.4371 45.5955 46.2782 45.0363 46.0908 44.4882L47.8878 43.901L48.3647 45.7214C48.4782 46.1464 48.6514 46.468 48.8842 46.6861C49.117 46.8986 49.4321 47.0049 49.8295 47.0049H50.1531V48.9259H49.9232Z" fill="#00A29A"/>
<path d="M49.8125 47.0049H51.0985V48.9259H49.8125V47.0049ZM52.2397 48.9259H50.8685V47.0049H52.2397C52.745 47.0049 53.0885 46.8567 53.2701 46.5603C53.4575 46.2639 53.5512 45.8864 53.5512 45.4278C53.5512 45.0531 53.5114 44.6532 53.432 44.2282C53.3525 43.7975 53.2701 43.3669 53.185 42.9363L54.9905 42.4833C55.0927 42.9642 55.1721 43.4396 55.2289 43.9094C55.2914 44.3792 55.3226 44.8266 55.3226 45.2516C55.3226 45.9563 55.2261 46.5854 55.033 47.1391C54.84 47.6928 54.5192 48.129 54.0707 48.4478C53.6222 48.7665 53.0118 48.9259 52.2397 48.9259ZM53.4745 50.1423L54.7861 51.4258L53.4745 52.7261L52.18 51.4258L53.4745 50.1423ZM50.6301 50.1423L51.9416 51.4258L50.6301 52.7261L49.327 51.4258L50.6301 50.1423Z" fill="#00A29A"/>
<path d="M63.2769 47.3069C63.2769 48.4869 63.0555 49.4908 62.6126 50.3185C62.1698 51.1518 61.5225 51.8257 60.6709 52.3402C59.8249 52.8547 58.7945 53.2266 57.5794 53.4559L56.9237 51.7278C57.7526 51.5656 58.4793 51.3475 59.1039 51.0735C59.7341 50.805 60.2422 50.4751 60.6283 50.0836C61.0201 49.6977 61.2727 49.2559 61.3863 48.7582C61.1989 48.8085 60.9917 48.8532 60.7646 48.8924C60.5375 48.9315 60.3359 48.9511 60.1599 48.9511C59.1152 48.9511 58.309 48.7274 57.7413 48.28C57.1792 47.827 56.8981 47.1223 56.8981 46.166C56.8981 45.7354 56.9634 45.3019 57.094 44.8657C57.2246 44.4239 57.4176 44.0184 57.6731 43.6493C57.9343 43.2802 58.2522 42.9838 58.627 42.7601C59.0074 42.5364 59.4417 42.4246 59.93 42.4246C60.5034 42.4246 61.0002 42.5616 61.4203 42.8356C61.8405 43.1096 62.1868 43.4816 62.4593 43.9513C62.7319 44.4155 62.9363 44.9384 63.0725 45.52C63.2088 46.0961 63.2769 46.6917 63.2769 47.3069ZM60.1684 47.0384C60.4126 47.0384 60.651 47.0217 60.8838 46.9881C61.1166 46.9545 61.3295 46.9098 61.5225 46.8539C61.4942 46.5015 61.4402 46.1716 61.3607 45.864C61.2869 45.5508 61.1847 45.2768 61.0541 45.0419C60.9292 44.807 60.7703 44.6252 60.5772 44.4966C60.3899 44.368 60.1684 44.3037 59.9129 44.3037C59.5836 44.3037 59.3253 44.4071 59.1379 44.614C58.9563 44.821 58.8285 45.0643 58.7547 45.3439C58.6809 45.6235 58.644 45.8724 58.644 46.0905C58.644 46.454 58.7774 46.7029 59.0443 46.8371C59.3111 46.9713 59.6858 47.0384 60.1684 47.0384Z" fill="#00A29A"/>
<path d="M75.7449 47.3069C75.7449 48.4869 75.5235 49.4908 75.0807 50.3185C74.6378 51.1518 73.9906 51.8257 73.1389 52.3402C72.293 52.8547 71.2625 53.2266 70.0475 53.4559L69.3917 51.7278C70.2206 51.5656 70.9474 51.3475 71.5719 51.0735C72.2021 50.805 72.7103 50.4751 73.0963 50.0836C73.4881 49.6977 73.7408 49.2559 73.8543 48.7582C73.6669 48.8085 73.4597 48.8532 73.2326 48.8924C73.0055 48.9315 72.8039 48.9511 72.6279 48.9511C71.5833 48.9511 70.777 48.7274 70.2093 48.28C69.6472 47.827 69.3662 47.1223 69.3662 46.166C69.3662 45.7354 69.4314 45.3019 69.562 44.8657C69.6926 44.4239 69.8857 44.0184 70.1412 43.6493C70.4023 43.2802 70.7203 42.9838 71.095 42.7601C71.4754 42.5364 71.9097 42.4246 72.398 42.4246C72.9714 42.4246 73.4682 42.5616 73.8884 42.8356C74.3085 43.1096 74.6548 43.4816 74.9274 43.9513C75.1999 44.4155 75.4043 44.9384 75.5406 45.52C75.6768 46.0961 75.7449 46.6917 75.7449 47.3069ZM72.6365 47.0384C72.8806 47.0384 73.1191 47.0217 73.3518 46.9881C73.5846 46.9545 73.7975 46.9098 73.9906 46.8539C73.9622 46.5015 73.9082 46.1716 73.8288 45.864C73.7549 45.5508 73.6527 45.2768 73.5222 45.0419C73.3973 44.807 73.2383 44.6252 73.0452 44.4966C72.8579 44.368 72.6365 44.3037 72.381 44.3037C72.0517 44.3037 71.7933 44.4071 71.606 44.614C71.4243 44.821 71.2965 45.0643 71.2227 45.3439C71.1489 45.6235 71.112 45.8724 71.112 46.0905C71.112 46.454 71.2454 46.7029 71.5123 46.8371C71.7791 46.9713 72.1539 47.0384 72.6365 47.0384Z" fill="#00A29A"/>
<path d="M83.9207 47.03C84.5396 47.03 85.0818 46.9797 85.5473 46.879C86.0186 46.7784 86.3848 46.6218 86.646 46.4093C86.9071 46.1912 87.0377 45.9031 87.0377 45.5452C87.0377 45.1929 86.8929 44.8238 86.6034 44.4379C86.3195 44.052 85.9079 43.6605 85.3685 43.2634C84.8348 42.8608 84.1847 42.4637 83.4182 42.0722L84.2614 40.3777C84.9313 40.7076 85.5445 41.06 86.1009 41.4347C86.6573 41.8094 87.1371 42.2092 87.5402 42.6343C87.9433 43.0593 88.2527 43.5095 88.4685 43.9849C88.6899 44.4547 88.8006 44.9552 88.8006 45.4865C88.8006 46.275 88.6189 46.9238 88.2556 47.4327C87.8979 47.936 87.367 48.3079 86.663 48.5484C85.959 48.7889 85.0874 48.9091 84.0484 48.9091C83.6397 48.9091 83.2507 48.8924 82.8817 48.8588C82.5183 48.8253 82.1692 48.7721 81.8342 48.6994V46.7868C82.2032 46.8595 82.5694 46.9182 82.9328 46.9629C83.2962 47.0077 83.6255 47.03 83.9207 47.03Z" fill="#00A29A"/>
<path d="M92.6415 37.2822V48.9175H90.8275V37.2822H92.6415Z" fill="#00A29A"/>
<path d="M96.3121 39.7988L97.6747 41.1411L96.3121 42.4833L94.9494 41.1411L96.3121 39.7988ZM93.1014 53.4643L92.4456 51.7362C93.3257 51.5461 94.0496 51.2748 94.6173 50.9225C95.1908 50.5757 95.6166 50.1395 95.8948 49.6138C96.173 49.0937 96.3121 48.4757 96.3121 47.7599C96.3121 47.2677 96.2468 46.7364 96.1162 46.166C95.9856 45.5955 95.8266 45.0363 95.6393 44.4882L97.4362 43.901C97.6463 44.4882 97.8053 45.0922 97.9132 45.713C98.0267 46.3338 98.0835 46.935 98.0835 47.5166C98.0835 48.5568 97.8933 49.4852 97.5129 50.3017C97.1325 51.1182 96.5732 51.7977 95.8352 52.3402C95.0971 52.8827 94.1858 53.2574 93.1014 53.4643Z" fill="#00A29A"/>
<path d="M101.848 36.1245C101.922 36.1637 101.995 36.1832 102.069 36.1832C102.183 36.1832 102.299 36.1413 102.418 36.0574C102.538 35.9679 102.688 35.8449 102.87 35.6883L103.33 35.2688L104.207 36.049L103.696 36.5272C103.401 36.8012 103.137 37.0081 102.904 37.148C102.677 37.2822 102.441 37.3493 102.197 37.3493C101.975 37.3493 101.714 37.285 101.413 37.1563L100.315 36.6614C100.235 36.6278 100.161 36.6027 100.093 36.5859C100.031 36.5635 99.9685 36.5523 99.906 36.5523C99.7697 36.5523 99.625 36.6055 99.4717 36.7117C99.3241 36.818 99.1282 36.9914 98.884 37.2318L98.3645 37.7436L97.4873 36.9634L98.0154 36.4265C98.3787 36.0574 98.6967 35.7862 98.9692 35.6128C99.2417 35.4394 99.5029 35.3527 99.7527 35.3527C99.906 35.3527 100.062 35.3779 100.221 35.4282C100.386 35.4786 100.562 35.5457 100.749 35.6296L101.848 36.1245ZM101.924 38.3811V48.9175H100.11V38.3811H101.924Z" fill="#00A29A"/>
<path d="M113.694 53.2462C112.473 53.2462 111.48 53.0197 110.713 52.5667C109.947 52.1193 109.385 51.5153 109.027 50.7547C108.675 49.9941 108.499 49.1468 108.499 48.2129C108.499 47.5865 108.564 46.9434 108.695 46.2834C108.831 45.6179 109.021 44.9664 109.266 44.3288L110.935 44.9748C110.753 45.5173 110.597 46.0653 110.466 46.619C110.341 47.1727 110.279 47.7012 110.279 48.2045C110.279 48.7749 110.384 49.2978 110.594 49.7732C110.81 50.2542 111.165 50.6345 111.659 50.9141C112.158 51.1993 112.837 51.3419 113.694 51.3419C114.898 51.3419 115.812 51.1378 116.436 50.7295C117.067 50.3269 117.402 49.7257 117.441 48.9259H116.172C115.065 48.9259 114.222 48.7022 113.643 48.2548C113.07 47.8074 112.783 47.1111 112.783 46.166C112.783 45.7521 112.845 45.3271 112.97 44.8909C113.101 44.4491 113.294 44.0408 113.549 43.6661C113.805 43.2914 114.12 42.9894 114.495 42.7601C114.875 42.5252 115.312 42.4078 115.806 42.4078C116.294 42.4078 116.734 42.5196 117.126 42.7433C117.524 42.9614 117.867 43.2746 118.157 43.6829C118.452 44.0856 118.682 44.5693 118.846 45.1342C119.011 45.6934 119.108 46.317 119.136 47.0049H119.971V48.9259H119.128C119.099 49.8767 118.864 50.6708 118.421 51.3084C117.978 51.9515 117.356 52.4353 116.556 52.7596C115.755 53.084 114.801 53.2462 113.694 53.2462ZM116.087 47.0049H117.416C117.382 46.5966 117.325 46.2275 117.245 45.8975C117.172 45.5676 117.069 45.2852 116.939 45.0503C116.808 44.8098 116.646 44.6252 116.453 44.4966C116.266 44.368 116.045 44.3037 115.789 44.3037C115.471 44.3037 115.219 44.4071 115.031 44.614C114.844 44.821 114.713 45.0643 114.639 45.3439C114.566 45.6179 114.529 45.8668 114.529 46.0905C114.529 46.4428 114.659 46.6833 114.92 46.8119C115.182 46.9406 115.571 47.0049 116.087 47.0049ZM117.075 38.7754L118.387 40.0589L117.075 41.3592L115.781 40.0589L117.075 38.7754ZM114.231 38.7754L115.542 40.0589L114.231 41.3592L112.928 40.0589L114.231 38.7754Z" fill="#00A29A"/>
<path d="M127.056 43.6913C126.721 43.6913 126.381 43.7696 126.034 43.9262C125.694 44.0828 125.347 44.3065 124.995 44.5973C124.649 44.8881 124.303 45.2376 123.956 45.6459C123.616 46.0541 123.281 46.5071 122.951 47.0049H124.067C124.777 47.0049 125.413 46.9741 125.975 46.9126C126.542 46.8511 127.025 46.7532 127.423 46.619C127.82 46.4792 128.124 46.2946 128.334 46.0653C128.55 45.836 128.657 45.5536 128.657 45.218C128.657 44.7706 128.507 44.4043 128.206 44.1191C127.911 43.8339 127.528 43.6913 127.056 43.6913ZM120.976 47.0049C121.072 46.8483 121.171 46.6973 121.274 46.5519C121.376 46.4009 121.475 46.2499 121.572 46.0989V37.2822H123.386V43.7332C123.675 43.42 123.962 43.1432 124.246 42.9027C124.535 42.6622 124.828 42.4609 125.123 42.2987C125.418 42.1365 125.719 42.0135 126.026 41.9296C126.338 41.8457 126.656 41.8038 126.98 41.8038C127.672 41.8038 128.28 41.9436 128.802 42.2232C129.33 42.5028 129.742 42.8915 130.037 43.3893C130.332 43.8814 130.48 44.4519 130.48 45.1006C130.48 45.7885 130.332 46.3757 130.037 46.8623C129.742 47.3432 129.313 47.7375 128.751 48.0451C128.189 48.3471 127.511 48.5708 126.716 48.7162C125.926 48.856 125.035 48.9259 124.042 48.9259H119.63V47.0049H120.976Z" fill="#00A29A"/>
<path d="M132.507 37.2822H134.321V45.1509C134.321 45.8556 134.44 46.3422 134.678 46.6106C134.923 46.8735 135.334 47.0049 135.913 47.0049H136.126V48.9259H135.913C134.744 48.9259 133.884 48.6267 133.333 48.0283C132.782 47.4243 132.507 46.4932 132.507 45.2348V37.2822Z" fill="#00A29A"/>
<path d="M138.383 43.6158L140.112 43.4061L140.265 45.562C140.282 45.8864 140.35 46.1576 140.47 46.3757C140.589 46.5882 140.759 46.7476 140.981 46.8539C141.208 46.9545 141.492 47.0049 141.832 47.0049H142.011V48.9259H141.815C141.412 48.9259 141.057 48.8784 140.751 48.7833C140.444 48.6827 140.177 48.5456 139.95 48.3723C139.729 48.1933 139.536 47.978 139.371 47.7263C139.053 48.1234 138.647 48.4226 138.153 48.6239C137.665 48.8253 137.151 48.9259 136.612 48.9259H135.794V47.0049H136.612C137.293 47.0049 137.77 46.8707 138.042 46.6022C138.321 46.3282 138.46 45.8836 138.46 45.2684C138.46 44.9776 138.451 44.6951 138.434 44.4211C138.423 44.1471 138.406 43.8786 138.383 43.6158ZM138.673 39.3207L140.035 40.6629L138.673 42.0051L137.31 40.6629L138.673 39.3207Z" fill="#00A29A"/>
<path d="M147.223 44.3876C146.962 44.3876 146.724 44.4742 146.508 44.6476C146.298 44.8154 146.108 45.0307 145.937 45.2935C145.773 45.5564 145.628 45.8192 145.503 46.0821C145.679 46.2499 145.849 46.3981 146.014 46.5267C146.178 46.6553 146.337 46.7644 146.491 46.8539C146.712 46.9881 146.919 47.086 147.112 47.1475C147.305 47.209 147.479 47.2398 147.632 47.2398C148.001 47.2398 148.271 47.1335 148.441 46.921C148.617 46.7085 148.705 46.426 148.705 46.0737C148.705 45.5928 148.574 45.1929 148.313 44.8741C148.052 44.5497 147.689 44.3876 147.223 44.3876ZM147.632 49.1189C147.246 49.1189 146.88 49.0629 146.533 48.9511C146.193 48.8392 145.858 48.6799 145.528 48.4729C145.199 48.266 144.864 48.0171 144.523 47.7263C144.296 47.9668 144.072 48.1793 143.851 48.3639C143.635 48.5428 143.385 48.6827 143.101 48.7833C142.817 48.8784 142.465 48.9259 142.045 48.9259H141.67V47.0049H142.003C142.338 47.0049 142.627 46.8986 142.871 46.6861C143.115 46.468 143.34 46.1912 143.544 45.8556C143.754 45.5145 143.964 45.1537 144.174 44.7734C144.39 44.3931 144.631 44.0324 144.898 43.6913C145.165 43.3501 145.48 43.0733 145.844 42.8608C146.213 42.6483 146.655 42.542 147.172 42.542C147.842 42.542 148.421 42.6986 148.909 43.0118C149.403 43.325 149.784 43.7444 150.051 44.2701C150.323 44.7902 150.459 45.3635 150.459 45.9898C150.459 46.6218 150.352 47.1727 150.136 47.6424C149.92 48.1066 149.602 48.4701 149.182 48.733C148.762 48.9902 148.245 49.1189 147.632 49.1189Z" fill="#00A29A"/>
<path d="M193.368 0.221248C202.914 5.64466 212.443 11.0964 222 16.4972V49.4972L221.885 49.5652C214.81 53.5761 207.05 57.9954 199.342 62.3806L192.976 66L186.611 62.3806C178.902 57.9954 171.142 53.5817 164.068 49.5652L163.953 49.4972V16.4972L165.214 15.7767C174.299 10.6029 183.373 5.43476 192.861 0.0624033L192.976 0L193.368 0.221248ZM201.756 41.5266L206.146 43.064V24.1558L192.988 20.6385L179.83 24.1558V43.064L184.22 41.5266V27.3837H201.756V41.5266ZM207.736 43.6256L211.181 44.8339V21.7447L192.994 13.5812L174.806 21.7447V44.8339L178.251 43.6256V22.9587L192.792 19.0727L192.85 19.067H193.149L193.207 19.0727L207.747 22.9587V43.6256H207.736ZM212.765 45.3899L216.193 46.5926V19.8216L192.982 7.85147L169.771 19.8216V46.5926L173.199 45.3899V20.7463C179.795 17.7963 186.386 14.8236 192.976 11.868C199.573 14.8236 206.157 17.7963 212.754 20.7463V45.3899H212.765ZM217.783 47.1485L220.422 48.0732V17.3992L192.988 1.79835L165.549 17.3992V48.0732L168.187 47.1485V18.8798C176.46 14.6364 184.733 10.376 192.982 6.09283C201.232 10.3816 209.51 14.6364 217.777 18.8798V47.1485H217.783ZM185.81 41.3847H200.166V28.9495H185.81V41.3847Z" fill="#00A29A"/>
</svg>
